<svg width="273" height="273" viewBox="0 0 273 273" fill="none" xmlns="http://www.w3.org/2000/svg">
<g clip-path="url(#clip0_573_147)">
<path d="M109.187 203.389C109.187 203.389 112.068 206.476 115.087 214.932C118.105 223.389 112.687 232.889 115.087 240.498C117.487 248.106 118.687 246.889 118.687 246.889" stroke="#0C2A46" stroke-width="6" stroke-linecap="round"/>
<path d="M97.1865 191.918V203.726C97.1865 205.308 98.937 206.264 100.268 205.408L115.413 195.672C116.676 194.86 116.627 192.998 115.324 192.253L105.299 186.525C104.621 186.137 103.779 186.18 103.144 186.634L98.024 190.291C97.4985 190.666 97.1865 191.272 97.1865 191.918Z" fill="#B7D7CE" stroke="#0C2A46" stroke-width="6" stroke-linecap="round"/>
<path d="M47.8506 113.385C67.6629 100.177 90.0392 104.691 101.316 119.227C106.991 126.541 111.249 139.632 111.876 152.864C112.507 166.174 109.428 178.516 101.735 185.109C94.2247 191.547 83.053 191.405 71.5361 187.156C60.1095 182.941 49.3426 175.005 43.5576 167.549C37.7951 160.122 34.0333 149.656 34.1885 139.475C34.3424 129.382 38.3193 119.739 47.8506 113.385Z" fill="#B7D7CE" stroke="#0C2A46" stroke-width="6"/>
<path d="M52.1866 127.889C52.1866 127.889 46.1882 134.389 48.1873 143.889C50.1863 153.389 55.1818 159.389 55.1818 159.389" stroke="#0C2A46" stroke-width="6" stroke-linecap="round"/>
<path d="M173.182 189.389C173.182 189.389 175.182 192.889 169.181 201.389C163.181 209.889 157.181 212.494 149.681 221.889C142.181 231.284 143.254 245.889 143.254 245.889" stroke="#0C2A46" stroke-width="6" stroke-linecap="round"/>
<path d="M177.449 175.484L167.066 181.106C165.674 181.86 165.668 183.854 167.054 184.617L182.827 193.299C184.142 194.023 185.756 193.094 185.791 191.593L186.055 180.049C186.072 179.269 185.634 178.549 184.933 178.207L179.279 175.446C178.698 175.162 178.017 175.177 177.449 175.484Z" fill="#F67E82" stroke="#0C2A46" stroke-width="6" stroke-linecap="round"/>
<path d="M228.778 94.5411C239.149 100.026 244.603 108.148 246.612 116.987C248.642 125.92 247.184 135.766 243.338 144.503C239.608 152.976 230.123 162.953 218.786 169.805C207.382 176.697 195.063 179.868 185.601 176.242C176.364 172.703 171.171 162.811 169.423 150.661C167.688 138.605 169.54 125.359 173.342 116.721C177.04 108.319 185.743 99.9385 196.31 95.1001C206.841 90.2781 218.689 89.2049 228.778 94.5411Z" fill="#F67E82" stroke="#0C2A46" stroke-width="6"/>
<path d="M212.326 105.425C212.326 105.425 203.754 103.245 196.352 109.527C188.95 115.808 186.052 123.058 186.052 123.058" stroke="#0C2A46" stroke-width="6" stroke-linecap="round"/>
<path d="M131.688 246.888C131.688 246.888 129.688 230.388 131.688 219.888C133.688 209.388 148.188 187.888 147.188 176.388C146.188 164.888 137.063 151.388 135.688 145.888C134.312 140.388 136.188 136.888 136.188 136.888" stroke="#0C2A46" stroke-width="6" stroke-linecap="round"/>
<path d="M130.245 123.051L124.521 133.378C123.754 134.762 124.822 136.447 126.401 136.344L144.367 135.17C145.865 135.072 146.725 133.42 145.946 132.136L139.955 122.266C139.55 121.599 138.793 121.228 138.017 121.317L131.766 122.034C131.124 122.107 130.558 122.486 130.245 123.051Z" fill="#C0ACE1" stroke="#0C2A46" stroke-width="6" stroke-linecap="round"/>
<path d="M127.433 28.3778C150.766 26.4626 166.216 42.8895 169.096 61.4739C170.513 70.6224 167.89 84.1362 162.024 96.0134C156.124 107.961 147.448 117.264 137.523 119.301C127.926 121.272 118.111 115.284 109.91 105.346C101.804 95.5231 96.0991 82.7659 94.6519 73.4288C93.2337 64.2779 95.6196 53.409 101.363 44.5974C107.073 35.8383 115.949 29.3206 127.433 28.3778Z" fill="#C0ACE1" stroke="#0C2A46" stroke-width="6"/>
<path d="M120.188 43.888C120.188 43.888 112.344 48.8879 110.188 55.8879C108.032 62.888 108.688 72.888 108.688 72.888" stroke="#0C2A46" stroke-width="6" stroke-linecap="round"/>
<path d="M70.1865 225.889C70.1865 225.889 75.1865 230.389 73.6865 235.889C72.1865 241.389 67.6865 243.389 67.6865 243.389" stroke="#36A0C3" stroke-width="6" stroke-linecap="round"/>
<path d="M25.0773 88.2793C25.0773 88.2793 28.1866 82.8889 33.6866 84.3889C39.1866 85.8889 41.1866 90.8889 41.1866 90.8889" stroke="#36A0C3" stroke-width="6" stroke-linecap="round"/>
<path d="M53.7792 42.9574C53.7792 42.9574 60.4265 43.9886 62.18 49.4131C63.9335 54.8376 61.261 58.9737 61.261 58.9737" stroke="#F67280" stroke-width="6" stroke-linecap="round"/>
<path d="M195.685 227.389C195.685 227.389 198.685 223.889 204.685 223.889C210.685 223.889 213.185 229.17 213.185 229.17" stroke="#F67280" stroke-width="6" stroke-linecap="round"/>
<path d="M225.185 198.889L235.185 192.889" stroke="#1A889B" stroke-width="6" stroke-linecap="round"/>
<circle cx="244.685" cy="68.8889" r="6" fill="#F67280"/>
<circle cx="215.185" cy="50.3889" r="9.5" fill="#B6A5E3" stroke="#1D2F49" stroke-width="6"/>
<circle cx="44.1865" cy="203.389" r="7.5" fill="#F67280"/>
</g>
<defs>
<clipPath id="clip0_573_147">
<rect width="273" height="273" fill="white"/>
</clipPath>
</defs>
</svg>
