<svg width="273" height="273" viewBox="0 0 273 273" fill="none" xmlns="http://www.w3.org/2000/svg">
<path d="M237.511 71.1685L184.13 123.818C183.347 124.59 182.088 124.585 181.311 123.808L162.126 104.623C161.344 103.842 160.078 103.842 159.297 104.623L127.705 136.215" stroke="#0B2F4D" stroke-width="6" stroke-linecap="round" stroke-linejoin="round"/>
<path d="M217.761 70.7391H238.155V89.6304" stroke="#0B2F4D" stroke-width="6" stroke-linecap="round" stroke-linejoin="round"/>
<path d="M131.739 153.598H151.794C152.898 153.598 153.794 154.493 153.794 155.598V205.706C153.794 206.811 152.898 207.706 151.794 207.706H131.739C130.635 207.706 129.739 206.811 129.739 205.706V155.598C129.739 154.493 130.635 153.598 131.739 153.598Z" fill="#4EA1BE" stroke="#0B2F4D" stroke-width="6"/>
<path d="M215.891 114.098H235.946C237.05 114.098 237.946 114.993 237.946 116.098V205.706C237.946 206.811 237.05 207.706 235.946 207.706H215.891C214.787 207.706 213.891 206.811 213.891 205.706V116.098C213.891 114.993 214.787 114.098 215.891 114.098Z" fill="#C0DECC" stroke="#0B2F4D" stroke-width="6"/>
<path d="M173.815 148.446H193.87C194.974 148.446 195.87 149.341 195.87 150.446V205.706C195.87 206.811 194.974 207.706 193.87 207.706H173.815C172.711 207.706 171.815 206.811 171.815 205.706V150.446C171.815 149.341 172.711 148.446 173.815 148.446Z" fill="#0E5472" stroke="#0B2F4D" stroke-width="6"/>
<path d="M38.7283 93.0653V201.69C38.7283 207.237 55.9022 211.995 75.2228 211.995C94.5435 211.995 108.283 207.237 108.283 201.69V93.0653" fill="#F3DFC1"/>
<path d="M38.7283 93.0653V201.69C38.7283 207.237 55.9022 211.995 75.2228 211.995C94.5435 211.995 108.283 207.237 108.283 201.69V93.0653" stroke="#0B2F4D" stroke-width="6" stroke-linecap="round" stroke-linejoin="round"/>
<path d="M73.5054 104.228C92.7123 104.228 108.283 98.5555 108.283 92.829C108.283 87.1025 92.7123 82.4603 73.5054 82.4603C54.2985 82.4603 38.7283 87.1025 38.7283 92.829C38.7283 98.5555 54.2985 104.228 73.5054 104.228Z" fill="#F3DFC1" stroke="#0B2F4D" stroke-width="6" stroke-linecap="round" stroke-linejoin="round"/>
<path d="M108.283 110.239C108.283 115.228 92.8261 119.255 73.5054 119.255C54.1848 119.255 38.7283 115.228 38.7283 110.239" stroke="#0B2F4D" stroke-width="6" stroke-linecap="round" stroke-linejoin="round"/>
<path d="M108.283 125.266C108.283 130.255 92.8261 134.283 73.5054 134.283C54.1848 134.283 38.7283 130.255 38.7283 125.266" stroke="#0B2F4D" stroke-width="6" stroke-linecap="round" stroke-linejoin="round"/>
<path d="M108.283 140.294C108.283 145.283 92.8261 149.31 73.5054 149.31C54.1848 149.31 38.7283 145.283 38.7283 140.294" stroke="#0B2F4D" stroke-width="6" stroke-linecap="round" stroke-linejoin="round"/>
<path d="M108.283 155.321C108.283 160.31 92.8261 164.337 73.5054 164.337C54.1848 164.337 38.7283 160.31 38.7283 155.321" stroke="#0B2F4D" stroke-width="6" stroke-linecap="round" stroke-linejoin="round"/>
<path d="M108.283 170.348C108.283 175.337 92.8261 179.364 73.5054 179.364C54.1848 179.364 38.7283 175.337 38.7283 170.348" stroke="#0B2F4D" stroke-width="6" stroke-linecap="round" stroke-linejoin="round"/>
<path d="M108.283 185.375C108.283 190.364 92.8261 194.391 73.5054 194.391C54.1848 194.391 38.7283 190.364 38.7283 185.375" stroke="#0B2F4D" stroke-width="6" stroke-linecap="round" stroke-linejoin="round"/>
</svg>
