<svg width="273" height="273" viewBox="0 0 273 273" fill="none" xmlns="http://www.w3.org/2000/svg">
<path d="M168.791 194.625V181.708C168.791 174.857 166.07 168.286 161.225 163.441C156.38 158.597 149.809 155.875 142.958 155.875H91.2913C84.4399 155.875 77.8691 158.597 73.0244 163.441C68.1797 168.286 65.458 174.857 65.458 181.708V194.625" stroke="#36A0C3" stroke-width="10" stroke-linecap="round" stroke-linejoin="round"/>
<path d="M117.125 130.042C131.393 130.042 142.959 118.476 142.959 104.208C142.959 89.941 131.393 78.375 117.125 78.375C102.858 78.375 91.292 89.941 91.292 104.208C91.292 118.476 102.858 130.042 117.125 130.042Z" stroke="#36A0C3" stroke-width="10" stroke-linecap="round" stroke-linejoin="round"/>
<path d="M199.542 194.625V181.708C199.538 175.985 197.633 170.424 194.126 165.9C190.619 161.377 185.709 158.146 180.167 156.715" stroke="#36A0C3" stroke-width="10" stroke-linecap="round" stroke-linejoin="round"/>
<path d="M154.333 79.2146C159.89 80.6374 164.815 83.8691 168.332 88.4004C171.85 92.9316 173.759 98.5045 173.759 104.241C173.759 109.977 171.85 115.55 168.332 120.081C164.815 124.612 159.89 127.844 154.333 129.267" stroke="#36A0C3" stroke-width="10" stroke-linecap="round" stroke-linejoin="round"/>
</svg>
