<svg width="273" height="273" viewBox="0 0 273 273" fill="none" xmlns="http://www.w3.org/2000/svg">
<path d="M48.2757 116.594C52.4105 114.996 57.2186 113.776 61.8503 112.862C66.4679 111.95 70.831 111.357 74.0447 110.993C75.0702 110.877 75.9768 110.787 76.7342 110.715L89.5154 165.217C88.8139 165.461 87.9808 165.748 87.0379 166.059C83.9688 167.073 79.7619 168.366 75.1935 169.495C70.6116 170.627 65.741 171.574 61.326 171.925C56.819 172.283 53.1898 171.982 50.837 170.961C48.7291 170.047 46.2722 167.437 43.9158 163.158C41.626 159 39.6834 153.727 38.3576 148.229C37.0316 142.73 36.3554 137.142 36.5133 132.375C36.6756 127.48 37.7004 123.987 39.2349 122.138C40.9207 120.107 44.0597 118.224 48.2757 116.594Z" fill="#64A396" stroke="#133353" stroke-width="6"/>
<path d="M87.4343 169.207C87.9772 170.304 88.7122 171.798 89.5708 173.574C91.4463 177.454 93.9112 182.668 96.277 188.024C98.65 193.397 100.894 198.845 102.349 203.211C103.081 205.404 103.579 207.227 103.811 208.583C103.928 209.264 103.96 209.732 103.951 210.02C103.951 210.021 103.951 210.023 103.95 210.024C103.539 210.52 102.681 211.2 101.193 211.92C99.5584 212.712 97.4824 213.402 95.2217 213.925C90.6719 214.977 85.9826 215.215 83.2949 214.653C83.2513 214.625 83.1746 214.574 83.0657 214.485C82.7716 214.244 82.3769 213.849 81.8869 213.261C80.9076 212.084 79.7568 210.387 78.4848 208.271C75.9508 204.054 73.1365 198.505 70.4917 192.925C67.8544 187.361 65.417 181.834 63.6373 177.694C63.0678 176.369 62.5665 175.187 62.1478 174.193L87.4343 169.207Z" fill="#AECDC0" stroke="#133353" stroke-width="6"/>
<path d="M139.017 69.9442C139.08 70.0605 139.149 70.1941 139.223 70.3466C139.62 71.1593 140.092 72.3137 140.63 73.8075C141.701 76.7847 142.948 80.8707 144.298 85.7411C146.992 95.4676 150.041 108.127 152.849 120.868C155.657 133.607 158.215 146.385 159.932 156.343C160.792 161.327 161.435 165.569 161.795 168.731C161.975 170.317 162.079 171.584 162.108 172.516C162.112 172.638 162.111 172.752 162.112 172.857C161.761 172.931 161.298 173.006 160.703 173.066C158.667 173.271 155.731 173.271 152.098 173.088C144.872 172.724 135.373 171.669 125.864 170.411C116.373 169.155 106.942 167.707 99.8797 166.572C96.3498 166.005 93.4141 165.517 91.3621 165.171C90.8964 165.092 90.4765 165.019 90.1053 164.956L77.4002 109.623C77.7085 109.395 78.0588 109.135 78.449 108.847C80.1207 107.613 82.5168 105.854 85.4099 103.757C91.1989 99.5603 98.9698 94.0154 106.911 88.6122C114.867 83.1989 122.934 77.9686 129.334 74.3749C132.549 72.5694 135.24 71.2371 137.234 70.4911C138.006 70.2025 138.594 70.0314 139.017 69.9442Z" fill="#FDF0E6" stroke="#133353" stroke-width="6"/>
<path d="M146.032 52.5299C150.794 51.4565 155.525 54.4462 156.598 59.2078L182.438 173.838C183.512 178.6 180.521 183.33 175.759 184.404C170.998 185.477 166.268 182.487 165.194 177.725L139.354 63.0949C138.281 58.3334 141.271 53.6034 146.032 52.5299Z" fill="#64A396" stroke="#133353" stroke-width="6"/>
<path d="M183.213 103.122C178.39 98.7378 168.024 96.546 168.024 96.546L176.793 137.761C176.793 137.761 186.203 132.06 188.913 123.291C191.624 114.522 188.036 107.507 183.213 103.122Z" fill="#D9D9D9" stroke="#133353" stroke-width="6" stroke-linecap="round"/>
<path d="M194.77 82.0765C194.77 82.0765 206.451 91.2841 210.116 100.053C213.78 108.822 213.628 115.046 212.308 121.976C210.988 128.906 207.485 135.568 207.485 135.568" stroke="#133353" stroke-width="6" stroke-linecap="round"/>
<path d="M206.608 61.9076C206.608 61.9076 219.167 67.9439 228.093 82.0764C237.018 96.209 239.336 103.999 237.143 120.661C234.951 137.322 228.093 147.406 228.093 147.406" stroke="#133353" stroke-width="6" stroke-linecap="round"/>
<path d="M206.17 216.559V193.129C206.17 192.577 205.722 192.129 205.17 192.129H194.4C193.532 192.129 193.076 191.099 193.66 190.456L217.681 164.033C218.087 163.587 218.793 163.599 219.183 164.059L241.603 190.482C242.154 191.132 241.692 192.129 240.84 192.129H230.846C230.294 192.129 229.846 192.577 229.846 193.129V216.559C229.846 217.112 229.399 217.559 228.846 217.559H207.17C206.617 217.559 206.17 217.112 206.17 216.559Z" fill="#B3D6C4" stroke="#133353" stroke-width="6" stroke-linecap="round"/>
<path d="M50.3612 130.745L67.0226 125.922M96.3991 117.153L126.653 96.984" stroke="#012E55" stroke-width="6" stroke-linecap="round"/>
<path d="M84.5608 185.552L92.8914 182.483M91.1376 197.39L98.5914 195.198" stroke="#012E55" stroke-width="6" stroke-linecap="round"/>
</svg>
