<svg width="273" height="273" viewBox="0 0 273 273" fill="none" xmlns="http://www.w3.org/2000/svg">
<rect x="41" y="52" width="191.976" height="142.515" rx="10" fill="#BBB0D9"/>
<path d="M43.0958 167.269H164.653" stroke="#012E55" stroke-width="6" stroke-linecap="round"/>
<path d="M146.629 80.0838L127.766 139.186M114.353 87.2096L95.491 110.263L114.353 133.737M161.299 87.2096L179.323 110.263L161.299 133.737" stroke="#012E55" stroke-width="6" stroke-linecap="round"/>
<ellipse cx="136.569" cy="181.521" rx="4.61078" ry="4.61078" fill="#012E55"/>
<path d="M115.445 196.192H158.944L165.701 218.826H109.533L115.445 196.192Z" fill="#BBB0D9"/>
<path d="M94.6527 220.503H107.647M179.743 220.503H167.168M113.934 195.353L107.647 220.503M107.647 220.503H167.168M160.042 194.096L167.168 220.503" stroke="#012E55" stroke-width="6" stroke-linecap="round"/>
<path d="M171.778 194.096H51C45.4772 194.096 41 189.619 41 184.096V62C41 56.4772 45.4772 52 51 52H222.976C228.499 52 232.976 56.4772 232.976 62V140.024" stroke="#012E55" stroke-width="6" stroke-linecap="round"/>
<path d="M231.505 183.464C231.094 184.418 230.972 185.476 231.153 186.502C231.335 187.528 231.812 188.475 232.524 189.221L232.709 189.41C233.283 189.998 233.738 190.695 234.049 191.463C234.36 192.231 234.519 193.054 234.519 193.886C234.519 194.717 234.36 195.54 234.049 196.308C233.738 197.076 233.283 197.773 232.709 198.361C232.136 198.949 231.455 199.416 230.705 199.734C229.956 200.052 229.153 200.216 228.341 200.216C227.53 200.216 226.727 200.052 225.978 199.734C225.228 199.416 224.547 198.949 223.974 198.361L223.789 198.171C223.061 197.442 222.137 196.953 221.136 196.767C220.135 196.581 219.102 196.706 218.171 197.127C217.258 197.528 216.48 198.194 215.931 199.043C215.383 199.891 215.089 200.885 215.085 201.903V202.441C215.085 204.119 214.434 205.727 213.277 206.914C212.119 208.1 210.549 208.766 208.912 208.766C207.274 208.766 205.704 208.1 204.547 206.914C203.389 205.727 202.738 204.119 202.738 202.441V202.156C202.715 201.109 202.384 200.094 201.789 199.242C201.195 198.391 200.364 197.742 199.405 197.38C198.474 196.959 197.441 196.834 196.44 197.02C195.439 197.206 194.515 197.695 193.787 198.424L193.602 198.614C193.029 199.202 192.348 199.669 191.599 199.987C190.849 200.305 190.046 200.469 189.235 200.469C188.424 200.469 187.62 200.305 186.871 199.987C186.121 199.669 185.441 199.202 184.867 198.614C184.293 198.026 183.838 197.329 183.527 196.561C183.217 195.793 183.057 194.97 183.057 194.139C183.057 193.307 183.217 192.484 183.527 191.716C183.838 190.948 184.293 190.251 184.867 189.663L185.053 189.474C185.764 188.728 186.241 187.781 186.423 186.755C186.605 185.729 186.482 184.671 186.071 183.717C185.68 182.782 185.03 181.984 184.202 181.422C183.374 180.86 182.404 180.559 181.41 180.555H180.886C179.248 180.555 177.678 179.888 176.521 178.702C175.363 177.516 174.713 175.907 174.713 174.229C174.713 172.551 175.363 170.942 176.521 169.756C177.678 168.57 179.248 167.904 180.886 167.904H181.163C182.185 167.879 183.176 167.54 184.007 166.931C184.838 166.322 185.471 165.471 185.824 164.488C186.235 163.534 186.358 162.476 186.176 161.45C185.995 160.424 185.517 159.477 184.806 158.731L184.62 158.542C184.046 157.954 183.591 157.257 183.28 156.489C182.97 155.721 182.81 154.898 182.81 154.066C182.81 153.235 182.97 152.412 183.28 151.644C183.591 150.876 184.046 150.179 184.62 149.591C185.194 149.003 185.875 148.536 186.624 148.218C187.373 147.9 188.177 147.736 188.988 147.736C189.799 147.736 190.602 147.9 191.352 148.218C192.101 148.536 192.782 149.003 193.355 149.591L193.541 149.781C194.268 150.51 195.192 150.999 196.193 151.185C197.194 151.371 198.227 151.246 199.158 150.825H199.405C200.318 150.424 201.097 149.758 201.645 148.909C202.193 148.061 202.488 147.067 202.492 146.049V145.511C202.492 143.834 203.142 142.225 204.3 141.038C205.457 139.852 207.027 139.186 208.665 139.186C210.302 139.186 211.872 139.852 213.03 141.038C214.187 142.225 214.838 143.834 214.838 145.511V145.796C214.842 146.814 215.136 147.808 215.684 148.656C216.233 149.505 217.011 150.171 217.924 150.572C218.855 150.993 219.888 151.118 220.889 150.932C221.891 150.746 222.814 150.257 223.542 149.528L223.727 149.338C224.3 148.75 224.981 148.283 225.731 147.965C226.48 147.647 227.283 147.483 228.095 147.483C228.906 147.483 229.709 147.647 230.458 147.965C231.208 148.283 231.889 148.75 232.462 149.338C233.036 149.926 233.491 150.623 233.802 151.391C234.113 152.159 234.273 152.982 234.273 153.813C234.273 154.645 234.113 155.468 233.802 156.236C233.491 157.004 233.036 157.701 232.462 158.289L232.277 158.478C231.565 159.224 231.088 160.171 230.906 161.197C230.725 162.223 230.847 163.281 231.258 164.235V164.488C231.65 165.423 232.299 166.221 233.127 166.783C233.955 167.345 234.926 167.646 235.919 167.65H236.444C238.081 167.65 239.651 168.317 240.809 169.503C241.966 170.689 242.617 172.298 242.617 173.976C242.617 175.654 241.966 177.263 240.809 178.449C239.651 179.635 238.081 180.302 236.444 180.302H236.166C235.173 180.306 234.202 180.607 233.374 181.169C232.546 181.731 231.896 182.529 231.505 183.464Z" fill="#1E697D" stroke="#012E55" stroke-width="5" stroke-linecap="round" stroke-linejoin="round"/>
<path d="M208.665 184.455C214.452 184.455 219.144 179.763 219.144 173.976C219.144 168.189 214.452 163.497 208.665 163.497C202.877 163.497 198.186 168.189 198.186 173.976C198.186 179.763 202.877 184.455 208.665 184.455Z" fill="#BBB0D9" stroke="#012E55" stroke-width="5" stroke-linecap="round" stroke-linejoin="round"/>
</svg>
