<svg width="149" height="160" viewBox="0 0 149 160" fill="none" xmlns="http://www.w3.org/2000/svg">
<rect x="0.00277442" y="1.41421" width="54" height="151" rx="17" transform="matrix(-0.705718 0.708493 0.708493 0.705718 38.523 7.41421)" fill="#DDC9BC" stroke="black" stroke-width="2"/>
<circle cx="1.5" cy="1.5" r="1.5" transform="matrix(-0.992247 0.124285 0.124285 0.992247 119.368 108.515)" fill="#B09F94"/>
<circle cx="1.5" cy="1.5" r="1.5" transform="matrix(-0.992247 0.124285 0.124285 0.992247 104.111 107.402)" fill="#B09F94"/>
<circle cx="1.5" cy="1.5" r="1.5" transform="matrix(-0.992247 0.124285 0.124285 0.992247 132.888 111.86)" fill="#B09F94"/>
<circle cx="1.5" cy="1.5" r="1.5" transform="matrix(-0.992247 0.124285 0.124285 0.992247 117.752 95.6157)" fill="#B09F94"/>
<circle cx="1.5" cy="1.5" r="1.5" transform="matrix(-0.992247 0.124285 0.124285 0.992247 121.232 123.399)" fill="#B09F94"/>
<circle cx="1.5" cy="1.5" r="1.5" transform="matrix(-0.992247 0.124285 0.124285 0.992247 105.727 120.302)" fill="#B09F94"/>
<circle cx="1.5" cy="1.5" r="1.5" transform="matrix(-0.992247 0.124285 0.124285 0.992247 91.8354 122.042)" fill="#B09F94"/>
<circle cx="1.5" cy="1.5" r="1.5" transform="matrix(-0.992247 0.124285 0.124285 0.992247 109.824 136.921)" fill="#B09F94"/>
<circle cx="1.5" cy="1.5" r="1.5" transform="matrix(0.136206 0.99068 0.99068 -0.136206 30.5564 52.1069)" fill="#B09F94"/>
<circle cx="1.5" cy="1.5" r="1.5" transform="matrix(0.136206 0.99068 0.99068 -0.136206 45.8252 53.0359)" fill="#B09F94"/>
<circle cx="1.5" cy="1.5" r="1.5" transform="matrix(0.136206 0.99068 0.99068 -0.136206 16.9965 48.9243)" fill="#B09F94"/>
<circle cx="1.5" cy="1.5" r="1.5" transform="matrix(0.136206 0.99068 0.99068 -0.136206 32.3271 64.9858)" fill="#B09F94"/>
<circle cx="1.5" cy="1.5" r="1.5" transform="matrix(0.136206 0.99068 0.99068 -0.136206 28.5133 37.2468)" fill="#B09F94"/>
<circle cx="1.5" cy="1.5" r="1.5" transform="matrix(0.136206 0.99068 0.99068 -0.136206 44.0545 40.157)" fill="#B09F94"/>
<circle cx="1.5" cy="1.5" r="1.5" transform="matrix(0.136206 0.99068 0.99068 -0.136206 57.9241 38.2502)" fill="#B09F94"/>
<circle cx="1.5" cy="1.5" r="1.5" transform="matrix(0.136206 0.99068 0.99068 -0.136206 39.7577 23.5879)" fill="#B09F94"/>
<rect x="106.429" y="6.16574" width="54" height="151" rx="17" transform="rotate(43.1529 106.429 6.16574)" fill="#DDC9BC" stroke="black" stroke-width="2"/>
<rect x="78.9442" y="52.7067" width="30.9635" height="47.1344" rx="9.5" transform="rotate(43.1529 78.9442 52.7067)" fill="#E7DBD3" stroke="black"/>
<circle cx="30.849" cy="112.175" r="1.5" transform="rotate(2.74652 30.849 112.175)" fill="#B09F94"/>
<circle cx="45.9755" cy="109.897" r="1.5" transform="rotate(2.74652 45.9755 109.897)" fill="#B09F94"/>
<circle cx="46.5985" cy="96.9118" r="1.5" transform="rotate(2.74652 46.5985 96.9118)" fill="#B09F94"/>
<circle cx="17.6243" cy="116.546" r="1.5" transform="rotate(2.74652 17.6243 116.546)" fill="#B09F94"/>
<circle cx="31.4719" cy="99.1897" r="1.5" transform="rotate(2.74652 31.4719 99.1897)" fill="#B09F94"/>
<circle cx="60.1032" cy="107.571" r="1.5" transform="rotate(2.74652 60.1032 107.571)" fill="#B09F94"/>
<circle cx="30.1303" cy="127.157" r="1.5" transform="rotate(2.74652 30.1303 127.157)" fill="#B09F94"/>
<circle cx="45.3526" cy="122.882" r="1.5" transform="rotate(2.74652 45.3526 122.882)" fill="#B09F94"/>
<circle cx="59.3365" cy="123.553" r="1.5" transform="rotate(2.74652 59.3365 123.553)" fill="#B09F94"/>
<circle cx="42.5403" cy="139.767" r="1.5" transform="rotate(2.74652 42.5403 139.767)" fill="#B09F94"/>
<circle cx="117.304" cy="47.9288" r="1.5" transform="rotate(92.7465 117.304 47.9288)" fill="#B09F94"/>
<circle cx="102.177" cy="50.2066" r="1.5" transform="rotate(92.7465 102.177 50.2066)" fill="#B09F94"/>
<circle cx="101.554" cy="63.1916" r="1.5" transform="rotate(92.7465 101.554 63.1916)" fill="#B09F94"/>
<circle cx="130.528" cy="43.5574" r="1.5" transform="rotate(92.7465 130.528 43.5574)" fill="#B09F94"/>
<circle cx="116.681" cy="60.9138" r="1.5" transform="rotate(92.7465 116.681 60.9138)" fill="#B09F94"/>
<circle cx="88.0493" cy="52.5322" r="1.5" transform="rotate(92.7465 88.0493 52.5322)" fill="#B09F94"/>
<circle cx="118.022" cy="32.946" r="1.5" transform="rotate(92.7465 118.022 32.946)" fill="#B09F94"/>
<circle cx="102.8" cy="37.2215" r="1.5" transform="rotate(92.7465 102.8 37.2215)" fill="#B09F94"/>
<circle cx="88.816" cy="36.5506" r="1.5" transform="rotate(92.7465 88.816 36.5506)" fill="#B09F94"/>
<circle cx="105.612" cy="20.3369" r="1.5" transform="rotate(92.7465 105.612 20.3369)" fill="#B09F94"/>
</svg>
