<svg width="1412" height="1153" viewBox="0 0 1412 1153" fill="none" xmlns="http://www.w3.org/2000/svg">
<mask id="path-1-inside-1_445_481" fill="white">
<path d="M1408.47 1048.49C1413 1052.48 1413 1059.52 1408.47 1063.51L1310.61 1149.64C1304.15 1155.32 1294 1150.74 1294 1142.13V969.869C1294 961.264 1304.15 956.677 1310.61 962.363L1408.47 1048.49Z"/>
<path d="M302 100V0H332.667C378.69 0 416 37.3096 416 83.3333C416 92.5381 409.705 100 400.5 100H350.667H302Z"/>
</mask>
<path d="M1408.47 1048.49C1413 1052.48 1413 1059.52 1408.47 1063.51L1310.61 1149.64C1304.15 1155.32 1294 1150.74 1294 1142.13V969.869C1294 961.264 1304.15 956.677 1310.61 962.363L1408.47 1048.49Z" fill="#FEBBCC"/>
<path d="M302 100V0H332.667C378.69 0 416 37.3096 416 83.3333C416 92.5381 409.705 100 400.5 100H350.667H302Z" fill="#FEBBCC"/>
<path d="M1310.61 962.363L1244.54 1037.43L1244.54 1037.43L1310.61 962.363ZM1310.61 1149.64L1244.54 1074.57L1244.54 1074.57L1310.61 1149.64ZM1408.47 1063.51L1474.54 1138.57L1474.54 1138.57L1408.47 1063.51ZM1408.47 1048.49L1474.54 973.426L1474.54 973.426L1408.47 1048.49ZM302 100H202V200H302V100ZM302 0V-100H202V0H302ZM1408.47 1063.51L1342.4 988.439L1244.54 1074.57L1310.61 1149.64L1376.67 1224.7L1474.54 1138.57L1408.47 1063.51ZM1294 1142.13H1394V969.869H1294H1194V1142.13H1294ZM1310.61 962.363L1244.54 1037.43L1342.4 1123.56L1408.47 1048.49L1474.54 973.426L1376.67 887.295L1310.61 962.363ZM1294 969.869H1394C1394 1047.32 1302.68 1088.6 1244.54 1037.43L1310.61 962.363L1376.67 887.295C1305.62 824.758 1194 875.212 1194 969.869H1294ZM1310.61 1149.64L1244.54 1074.57C1302.68 1023.4 1394 1064.68 1394 1142.13H1294H1194C1194 1236.79 1305.62 1287.24 1376.67 1224.7L1310.61 1149.64ZM1408.47 1063.51L1474.54 1138.57C1524.31 1094.77 1524.31 1017.23 1474.54 973.426L1408.47 1048.49L1342.4 1123.56C1301.68 1087.72 1301.68 1024.28 1342.4 988.439L1408.47 1063.51ZM302 100H402V0H302H202V100H302ZM302 0V100H332.667V0V-100H302V0ZM416 83.3333H316C316 65.2937 322.246 44.9678 337.494 28.0867C353.465 10.4064 376.424 0 400.5 0V100V200C474.258 200 516 137.956 516 83.3333H416ZM332.667 0V100C323.462 100 316 92.5381 316 83.3333H416H516C516 -17.9188 433.919 -100 332.667 -100V0ZM400.5 100V0H350.667V100V200H400.5V100ZM350.667 100V0H302V100V200H350.667V100Z" fill="#FEBBCC" mask="url(#path-1-inside-1_445_481)"/>
<path d="M302.061 50C301.374 50 300.687 50.0029 300 50.0088" stroke="#FEBBCC" stroke-width="100" stroke-linecap="round"/>
<path d="M1294 1056H302.06C178.322 1056 50 961.134 50 803.939L50.0001 302.06C50.0001 145.739 176.901 51.0549 300 50.0088" stroke="#FEBBCC" stroke-width="100" stroke-linecap="round"/>
</svg>
