<svg width="194" height="87" viewBox="0 0 194 87" fill="none" xmlns="http://www.w3.org/2000/svg">
<path d="M58.8535 51.0239C62.5965 52.9414 66.0246 55.4323 69.0078 58.4155C72.7614 62.1692 75.739 66.6254 77.7705 71.5298C79.8019 76.4342 80.8476 81.691 80.8477 86.9995H0C5.10907e-05 81.691 1.04571 76.4342 3.07715 71.5298C5.10864 66.6254 8.08623 62.1692 11.8398 58.4155C14.5018 55.7535 17.518 53.4834 20.7959 51.6626C26.1848 54.9836 32.5306 56.9018 39.3252 56.9019C46.5443 56.9019 53.2572 54.7369 58.8535 51.0239Z" fill="#51738E"/>
<ellipse cx="39.1058" cy="25.2653" rx="25.2649" ry="25.2653" fill="#51738E"/>
<path d="M171.854 51.0239C175.596 52.9414 179.025 55.4323 182.008 58.4155C185.761 62.1692 188.739 66.6254 190.771 71.5298C192.802 76.4342 193.848 81.691 193.848 86.9995H113C113 81.691 114.046 76.4342 116.077 71.5298C118.109 66.6254 121.086 62.1692 124.84 58.4155C127.502 55.7535 130.518 53.4834 133.796 51.6626C139.185 54.9836 145.531 56.9018 152.325 56.9019C159.544 56.9019 166.257 54.7369 171.854 51.0239Z" fill="#51738E"/>
<ellipse cx="152.106" cy="25.2653" rx="25.2649" ry="25.2653" fill="#51738E"/>
</svg>
