<svg width="123" height="163" viewBox="0 0 123 163" fill="none" xmlns="http://www.w3.org/2000/svg">
<g filter="url(#filter0_d_270_41)">
<rect x="5" y="19.8577" width="113" height="134.142" rx="14" fill="#FEBBCC" stroke="black" stroke-width="2"/>
<rect x="19" y="40" width="85" height="102" rx="14" fill="white" stroke="black" stroke-width="2"/>
<mask id="path-3-inside-1_270_41" fill="white">
<path d="M61.5 0C67.5691 0 72.6274 4.1524 73.7617 9.65918H88.0381V27.3828H34.9619V9.65918H49.2383C50.3726 4.1524 55.4309 0 61.5 0Z"/>
</mask>
<path d="M61.5 0C67.5691 0 72.6274 4.1524 73.7617 9.65918H88.0381V27.3828H34.9619V9.65918H49.2383C50.3726 4.1524 55.4309 0 61.5 0Z" fill="#E6CCCC"/>
<path d="M73.7617 9.65918L71.8028 10.0627L72.1317 11.6592H73.7617V9.65918ZM88.0381 9.65918H90.0381V7.65918H88.0381V9.65918ZM88.0381 27.3828V29.3828H90.0381V27.3828H88.0381ZM34.9619 27.3828H32.9619V29.3828H34.9619V27.3828ZM34.9619 9.65918V7.65918H32.9619V9.65918H34.9619ZM49.2383 9.65918V11.6592H50.8683L51.1972 10.0627L49.2383 9.65918ZM61.5 0V2C66.657 2 70.8674 5.52109 71.8028 10.0627L73.7617 9.65918L75.7206 9.25569C74.3875 2.78372 68.4813 -2 61.5 -2V0ZM73.7617 9.65918V11.6592H88.0381V9.65918V7.65918H73.7617V9.65918ZM88.0381 9.65918H86.0381V27.3828H88.0381H90.0381V9.65918H88.0381ZM88.0381 27.3828V25.3828H34.9619V27.3828V29.3828H88.0381V27.3828ZM34.9619 27.3828H36.9619V9.65918H34.9619H32.9619V27.3828H34.9619ZM34.9619 9.65918V11.6592H49.2383V9.65918V7.65918H34.9619V9.65918ZM49.2383 9.65918L51.1972 10.0627C52.1326 5.52109 56.343 2 61.5 2V0V-2C54.5187 -2 48.6125 2.78372 47.2794 9.25569L49.2383 9.65918Z" fill="black" mask="url(#path-3-inside-1_270_41)"/>
<circle cx="62" cy="14" r="5.5" fill="#FFF4EC" stroke="black"/>
<path d="M78.8385 66.0943C77.8367 65.1133 76.6472 64.3351 75.3381 63.8042C74.0289 63.2733 72.6257 63 71.2086 63C69.7914 63 68.3882 63.2733 67.079 63.8042C65.7699 64.3351 65.0018 65.519 64 66.5L61.5 69.5L59 66.5C56.9764 64.5194 54.6522 63.001 51.7904 63.001C48.9286 63.001 46.184 64.1137 44.1604 66.0943C42.1368 68.0748 41 70.761 41 73.562C41 76.3629 42.1368 79.0491 44.1604 81.0297L46.2395 83.0646L61.4995 98L76.7594 83.0646L78.8385 81.0297C79.8408 80.0492 80.6359 78.885 81.1783 77.6037C81.7208 76.3223 82 74.9489 82 73.562C82 72.175 81.7208 70.8016 81.1783 69.5203C80.6359 68.2389 79.8408 67.0748 78.8385 66.0943Z" fill="#F67280" stroke="#D81827" stroke-linecap="round" stroke-linejoin="round"/>
<path d="M94 122H76L73 131L67 113L64 122H30" stroke="#D81827" stroke-width="2" stroke-linecap="round" stroke-linejoin="round"/>
</g>
<defs>
<filter id="filter0_d_270_41" x="0" y="0" width="123" height="163" filterUnits="userSpaceOnUse" color-interpolation-filters="sRGB">
<feFlood flood-opacity="0" result="BackgroundImageFix"/>
<feColorMatrix in="SourceAlpha" type="matrix" values="0 0 0 0 0 0 0 0 0 0 0 0 0 0 0 0 0 0 127 0" result="hardAlpha"/>
<feOffset dy="4"/>
<feGaussianBlur stdDeviation="2"/>
<feComposite in2="hardAlpha" operator="out"/>
<feColorMatrix type="matrix" values="0 0 0 0 0 0 0 0 0 0 0 0 0 0 0 0 0 0 0.25 0"/>
<feBlend mode="normal" in2="BackgroundImageFix" result="effect1_dropShadow_270_41"/>
<feBlend mode="normal" in="SourceGraphic" in2="effect1_dropShadow_270_41" result="shape"/>
</filter>
</defs>
</svg>
