<svg width="116" height="104" viewBox="0 0 116 104" fill="none" xmlns="http://www.w3.org/2000/svg">
<path d="M22.5 60.0114C22.5 66.0866 17.5751 71.0114 11.5 71.0114C5.42487 71.0114 0.5 66.0866 0.5 60.0114C0.5 53.9363 5.42487 49.0114 11.5 49.0114C17.5751 49.0114 22.5 53.9363 22.5 60.0114Z" fill="#C1C1C1"/>
<path d="M58.4973 10.8328C57.9465 9.2702 58.7668 7.55693 60.3294 7.00612L63.1587 6.00878C64.7214 5.45797 66.4346 6.2782 66.9854 7.84082L69.1591 14.0075C69.71 15.5701 68.8897 17.2833 67.3271 17.8342L64.4977 18.8315C62.9351 19.3823 61.2218 18.5621 60.671 16.9995L58.4973 10.8328Z" fill="#C7D9DD"/>
<path d="M87.0377 4.57602C86.7407 2.946 87.8214 1.38386 89.4514 1.08689L92.4028 0.549166C94.0329 0.252192 95.595 1.33284 95.892 2.96286L97.0639 9.39551C97.3609 11.0255 96.2803 12.5877 94.6502 12.8846L91.6988 13.4224C90.0688 13.7193 88.5067 12.6387 88.2097 11.0087L87.0377 4.57602Z" fill="#C7D9DD"/>
<path d="M35 59.5137C30.9129 58.1514 25.3333 58.847 23 59.5137L21.5 53.5136C23.5 52.5136 28.3612 50.9766 36 53.0136C43.5 55.0136 48.5 59.5136 52 64.5136C53.3333 66.847 56.1 72.7136 56.5 77.5136C56.9 82.3136 60 87.5136 61.5 89.5136C62.6667 91.0136 66 94.3136 70 95.5136C74 96.7136 78.6667 96.0136 80.5 95.5136C82.6667 94.6803 87.6 91.4136 90 85.0136C90.3333 84.1803 90.5 79.9494 90 76.9494H96.5C97.5 82.4494 97.5 84.0137 95.5 88.5137C93.2296 93.622 92 95.0137 89.5 97.5137C87 100.014 82.5 103.014 77 103.014C72 103.014 72 103.514 66 101.014C61.2 99.0137 57 94.5137 55.5 92.5137C54.1667 90.0137 51.2191 83.9688 50.5 80.0136C49.5 74.5136 46.8333 68.6803 45 65.5137C43.5 63.5137 39.5 61.0136 35 59.5137Z" fill="#F67280"/>
<path d="M89.3519 76.5757C88.5519 76.5757 85.1879 74.909 83.6879 74.0757C78.8879 72.0757 75.3546 68.909 74.1879 67.5757L63.6879 55.0757L51.6879 37.0757C50.0212 34.2423 47.1879 27.0757 49.1879 21.0757C51.1879 15.0757 56.0212 12.2423 58.1879 11.5757L60.6879 18.0757C59.6879 18.5757 57.3879 20.3757 56.1879 23.5757C54.9879 26.7757 55.6879 29.909 56.1879 31.0757L67.1879 48.5757L80.6879 64.0757C83.6879 65.5757 90.0879 68.4757 91.6879 68.0757C93.2879 67.6757 97.0212 63.5757 98.6879 61.5757L105.188 39.0757L108.688 21.0757C108.355 19.0757 107.088 14.6757 104.688 13.0757C102.288 11.4757 98.6879 10.7423 97.1879 10.5757L96.1879 4.07565C100.188 3.67565 104.521 5.24232 106.188 6.07565C114.188 9.57565 115.688 19.0756 115.188 24.0756C113.188 33.0756 108.588 52.8757 106.188 60.0757C103.88 67.0007 98.6395 73.8607 96.188 76.5756L89.3519 76.5757Z" fill="#D9D9D9"/>
<path d="M22.5 60.0114C22.5 66.0866 17.5751 71.0114 11.5 71.0114C5.42487 71.0114 0.5 66.0866 0.5 60.0114C0.5 53.9363 5.42487 49.0114 11.5 49.0114C17.5751 49.0114 22.5 53.9363 22.5 60.0114Z" stroke="black" stroke-linejoin="round"/>
<path d="M58.4973 10.8328C57.9465 9.2702 58.7668 7.55693 60.3294 7.00612L63.1587 6.00878C64.7214 5.45797 66.4346 6.2782 66.9854 7.84082L69.1591 14.0075C69.71 15.5701 68.8897 17.2833 67.3271 17.8342L64.4977 18.8315C62.9351 19.3823 61.2218 18.5621 60.671 16.9995L58.4973 10.8328Z" stroke="black" stroke-linejoin="round"/>
<path d="M87.0377 4.57602C86.7407 2.946 87.8214 1.38386 89.4514 1.08689L92.4028 0.549166C94.0329 0.252192 95.595 1.33284 95.892 2.96286L97.0639 9.39551C97.3609 11.0255 96.2803 12.5877 94.6502 12.8846L91.6988 13.4224C90.0688 13.7193 88.5067 12.6387 88.2097 11.0087L87.0377 4.57602Z" stroke="black" stroke-linejoin="round"/>
<path d="M35 59.5137C30.9129 58.1514 25.3333 58.847 23 59.5137L21.5 53.5136C23.5 52.5136 28.3612 50.9766 36 53.0136C43.5 55.0136 48.5 59.5136 52 64.5136C53.3333 66.847 56.1 72.7136 56.5 77.5136C56.9 82.3136 60 87.5136 61.5 89.5136C62.6667 91.0136 66 94.3136 70 95.5136C74 96.7136 78.6667 96.0136 80.5 95.5136C82.6667 94.6803 87.6 91.4136 90 85.0136C90.3333 84.1803 90.5 79.9494 90 76.9494H96.5C97.5 82.4494 97.5 84.0137 95.5 88.5137C93.2296 93.622 92 95.0137 89.5 97.5137C87 100.014 82.5 103.014 77 103.014C72 103.014 72 103.514 66 101.014C61.2 99.0137 57 94.5137 55.5 92.5137C54.1667 90.0137 51.2191 83.9688 50.5 80.0136C49.5 74.5136 46.8333 68.6803 45 65.5137C43.5 63.5137 39.5 61.0136 35 59.5137Z" stroke="black" stroke-linejoin="round"/>
<path d="M89.3519 76.5757C88.5519 76.5757 85.1879 74.909 83.6879 74.0757C78.8879 72.0757 75.3546 68.909 74.1879 67.5757L63.6879 55.0757L51.6879 37.0757C50.0212 34.2423 47.1879 27.0757 49.1879 21.0757C51.1879 15.0757 56.0212 12.2423 58.1879 11.5757L60.6879 18.0757C59.6879 18.5757 57.3879 20.3757 56.1879 23.5757C54.9879 26.7757 55.6879 29.909 56.1879 31.0757L67.1879 48.5757L80.6879 64.0757C83.6879 65.5757 90.0879 68.4757 91.6879 68.0757C93.2879 67.6757 97.0212 63.5757 98.6879 61.5757L105.188 39.0757L108.688 21.0757C108.355 19.0757 107.088 14.6757 104.688 13.0757C102.288 11.4757 98.6879 10.7423 97.1879 10.5757L96.1879 4.07565C100.188 3.67565 104.521 5.24232 106.188 6.07565C114.188 9.57565 115.688 19.0756 115.188 24.0756C113.188 33.0756 108.588 52.8757 106.188 60.0757C103.88 67.0007 98.6395 73.8607 96.188 76.5756L89.3519 76.5757Z" stroke="black" stroke-linejoin="round"/>
</svg>
