<svg width="183" height="180" viewBox="0 0 183 180" fill="none" xmlns="http://www.w3.org/2000/svg">
<ellipse cx="91.2154" cy="89.6662" rx="91.2154" ry="89.6662" fill="#D9D9D9"/>
<path d="M115.836 99.8003C120.836 102.362 125.414 105.69 129.399 109.675C134.413 114.69 138.391 120.643 141.105 127.195C143.819 133.746 145.215 140.769 145.215 147.86H37.2154C37.2154 140.768 38.6121 133.746 41.3257 127.195C44.0395 120.643 48.0174 114.69 53.0318 109.675C56.5873 106.12 60.6147 103.086 64.9927 100.654C72.1919 105.091 80.6702 107.653 89.7476 107.653C99.3921 107.653 108.36 104.761 115.836 99.8003Z" fill="#919191"/>
<ellipse cx="89.4544" cy="65.3915" rx="33.75" ry="33.7505" fill="#919191"/>
</svg>
