<svg width="339" height="322" viewBox="0 0 339 322" fill="none" xmlns="http://www.w3.org/2000/svg">
<g filter="url(#filter0_d_509_116)">
<g filter="url(#filter1_d_509_116)">
<path d="M6.99999 249V205.8H19.32L32.12 236.253H32.3333L45.08 205.8H57.3467V249H48.3333V218.493H48.12L35.7467 249H28.0133L15.6933 218.493H15.48V249H6.99999ZM99.2375 249H67.7175V205.8H99.2375V213.693H76.7308V222.76H97.4775V230.44H76.7308V241.107H99.2375V249ZM107.747 249V205.8H124.761C129.454 205.8 133.507 206.671 136.921 208.413C140.334 210.156 142.965 212.644 144.814 215.88C146.663 219.116 147.587 222.956 147.587 227.4C147.587 231.809 146.645 235.631 144.761 238.867C142.912 242.102 140.281 244.609 136.867 246.387C133.454 248.129 129.419 249 124.761 249H107.747ZM116.761 241.32H124.761C129.241 241.32 132.636 240.058 134.947 237.533C137.294 234.973 138.467 231.596 138.467 227.4C138.467 223.169 137.294 219.791 134.947 217.267C132.636 214.742 129.241 213.48 124.761 213.48H116.761V241.32ZM172.279 249H163.426V213.693H149.399V205.8H186.306V213.693H172.279V249ZM224.89 249H193.37V205.8H224.89V213.693H202.383V222.76H223.13V230.44H202.383V241.107H224.89V249ZM252.177 249.8C247.769 249.8 243.911 248.893 240.604 247.08C237.333 245.231 234.791 242.636 232.977 239.293C231.164 235.916 230.257 231.987 230.257 227.507C230.257 222.956 231.164 219.009 232.977 215.667C234.791 212.324 237.333 209.747 240.604 207.933C243.911 206.084 247.769 205.16 252.177 205.16C255.733 205.16 258.88 205.782 261.617 207.027C264.391 208.236 266.649 209.978 268.391 212.253C270.169 214.529 271.289 217.249 271.751 220.413H262.364C261.973 218.102 260.871 216.324 259.057 215.08C257.244 213.8 254.951 213.16 252.177 213.16C248.195 213.16 245.049 214.422 242.737 216.947C240.426 219.471 239.271 222.991 239.271 227.507C239.271 231.987 240.426 235.507 242.737 238.067C245.049 240.591 248.195 241.853 252.177 241.853C254.951 241.853 257.244 241.213 259.057 239.933C260.871 238.653 261.973 236.858 262.364 234.547H271.751C271.289 237.711 270.169 240.449 268.391 242.76C266.649 245.036 264.391 246.778 261.617 247.987C258.88 249.196 255.733 249.8 252.177 249.8ZM278.305 249V205.8H287.318V222.653H308.545V205.8H317.558V249H308.545V230.547H287.318V249H278.305Z" fill="#035386"/>
<path d="M103.755 309H94.1017L71.6483 279.027H71.435V309H62.795V265.8H72.1283L94.9017 296.413H95.115V265.8H103.755V309ZM145.595 309H114.075V265.8H145.595V273.693H123.088V282.76H143.835V290.44H123.088V301.107H145.595V309ZM149.945 309L166.212 286.493L151.118 265.8H161.465L171.652 280.147H171.865L182.052 265.8H192.078L176.985 286.387L193.252 309H182.692L171.545 293.213H171.332L160.185 309H149.945ZM216.489 309.64C212.614 309.64 209.236 309.053 206.356 307.88C203.476 306.671 201.254 304.84 199.689 302.387C198.125 299.898 197.342 296.733 197.342 292.893V265.8H206.569V291.613C206.569 294.636 207.369 297 208.969 298.707C210.605 300.378 213.2 301.213 216.756 301.213C220.382 301.213 222.978 300.324 224.542 298.547C226.142 296.769 226.942 294.476 226.942 291.667V265.8H235.956V293C235.956 298.547 234.231 302.707 230.782 305.48C227.334 308.253 222.569 309.64 216.489 309.64ZM262.919 309.64C257.124 309.64 252.501 308.378 249.052 305.853C245.604 303.293 243.719 299.756 243.399 295.24H252.679C252.999 297.587 254.048 299.364 255.826 300.573C257.639 301.747 260.128 302.333 263.292 302.333C266.101 302.333 268.217 301.889 269.639 301C271.061 300.076 271.772 298.724 271.772 296.947C271.772 295.56 271.31 294.458 270.386 293.64C269.497 292.822 268.039 292.2 266.012 291.773L257.106 289.96C253.088 289.107 250.084 287.702 248.092 285.747C246.101 283.756 245.106 281.178 245.106 278.013C245.106 273.996 246.617 270.849 249.639 268.573C252.697 266.298 256.839 265.16 262.066 265.16C267.364 265.16 271.63 266.351 274.866 268.733C278.101 271.116 279.915 274.44 280.306 278.707H271.026C269.995 274.369 266.848 272.2 261.586 272.2C259.204 272.2 257.337 272.627 255.986 273.48C254.635 274.333 253.959 275.56 253.959 277.16C253.959 279.613 255.719 281.196 259.239 281.907L268.519 283.827C272.715 284.68 275.772 286.12 277.692 288.147C279.648 290.138 280.626 292.84 280.626 296.253C280.626 300.484 279.079 303.773 275.986 306.12C272.928 308.467 268.572 309.64 262.919 309.64Z" fill="#5CD0F3"/>
</g>
<g filter="url(#filter2_d_509_116)">
<g filter="url(#filter3_d_509_116)">
<circle cx="180.978" cy="60" r="7.5" stroke="#10507C" stroke-width="7"/>
<circle cx="204.978" cy="87" r="7.5" stroke="#10507C" stroke-width="7"/>
<circle cx="236.978" cy="87" r="7.5" stroke="#10507C" stroke-width="7"/>
<path d="M180.978 171V101.077V70" stroke="#0B5383" stroke-width="6"/>
<path d="M191.978 171V128.769V110" stroke="#0B5383" stroke-width="6"/>
<path d="M188.978 112H204.478V96" stroke="#0B5383" stroke-width="6"/>
<path d="M213.478 87.5H228.978" stroke="#0B5383" stroke-width="6"/>
</g>
<g filter="url(#filter4_d_509_116)">
<path d="M118.478 127C120.687 127 122.478 125.209 122.478 123C122.478 120.791 120.687 119 118.478 119V123V127ZM118.478 123V119C118.469 119 118.459 119 118.45 119C118.441 119 118.432 119 118.422 119C118.413 119 118.404 119 118.394 119C118.385 119 118.375 119 118.366 119C118.357 119 118.347 119 118.338 119C118.328 119 118.318 119 118.309 119C118.299 119 118.29 119 118.28 119C118.27 119 118.261 119 118.251 119C118.241 119 118.232 119 118.222 119C118.212 119 118.202 119 118.192 119C118.183 119 118.173 119 118.163 119C118.153 119 118.143 119 118.133 119C118.123 119 118.113 119 118.103 119C118.093 119 118.083 119 118.073 119C118.063 119 118.053 119 118.043 119C118.032 119 118.022 119 118.012 119C118.002 119 117.992 119 117.981 119C117.971 119 117.961 119 117.95 119C117.94 119 117.93 119 117.919 119C117.909 119 117.899 119 117.888 119C117.878 119 117.867 119 117.857 119C117.846 119 117.836 119 117.825 119C117.814 119 117.804 119 117.793 119C117.783 119 117.772 119 117.761 119C117.75 119 117.74 119 117.729 119C117.718 119 117.707 119 117.697 119C117.686 119 117.675 119 117.664 119C117.653 119 117.642 119 117.631 119C117.62 119 117.609 119 117.598 119C117.587 119 117.576 119 117.565 119C117.554 119 117.543 119 117.532 119C117.521 119 117.51 119 117.499 119C117.488 119 117.476 119 117.465 119C117.454 119 117.443 119 117.431 119C117.42 119 117.409 119 117.397 119C117.386 119 117.375 119 117.363 119C117.352 119 117.34 119 117.329 119C117.318 119 117.306 119 117.294 119C117.283 119 117.271 119 117.26 119C117.248 119 117.237 119 117.225 119C117.213 119 117.202 119 117.19 119C117.178 119 117.167 119 117.155 119C117.143 119 117.131 119 117.12 119C117.108 119 117.096 119 117.084 119C117.072 119 117.06 119 117.048 119C117.036 119 117.024 119 117.012 119C117.001 119 116.988 119 116.976 119C116.964 119 116.952 119 116.94 119C116.928 119 116.916 119 116.904 119C116.892 119 116.88 119 116.867 119C116.855 119 116.843 119 116.831 119C116.818 119 116.806 119 116.794 119C116.782 119 116.769 119 116.757 119C116.744 119 116.732 119 116.72 119C116.707 119 116.695 119 116.682 119C116.67 119 116.657 119 116.645 119C116.632 119 116.62 119 116.607 119C116.595 119 116.582 119 116.569 119C116.557 119 116.544 119 116.531 119C116.519 119 116.506 119 116.493 119C116.48 119 116.468 119 116.455 119C116.442 119 116.429 119 116.416 119C116.403 119 116.391 119 116.378 119C116.365 119 116.352 119 116.339 119C116.326 119 116.313 119 116.3 119C116.287 119 116.274 119 116.261 119C116.248 119 116.235 119 116.221 119C116.208 119 116.195 119 116.182 119C116.169 119 116.156 119 116.142 119C116.129 119 116.116 119 116.103 119C116.089 119 116.076 119 116.063 119C116.049 119 116.036 119 116.023 119C116.009 119 115.996 119 115.982 119C115.969 119 115.956 119 115.942 119C115.929 119 115.915 119 115.902 119C115.888 119 115.874 119 115.861 119C115.847 119 115.834 119 115.82 119C115.806 119 115.793 119 115.779 119C115.765 119 115.752 119 115.738 119C115.724 119 115.71 119 115.697 119C115.683 119 115.669 119 115.655 119C115.641 119 115.627 119 115.614 119C115.6 119 115.586 119 115.572 119C115.558 119 115.544 119 115.53 119C115.516 119 115.502 119 115.488 119C115.474 119 115.46 119 115.446 119C115.432 119 115.418 119 115.403 119C115.389 119 115.375 119 115.361 119C115.347 119 115.333 119 115.318 119C115.304 119 115.29 119 115.275 119C115.261 119 115.247 119 115.233 119C115.218 119 115.204 119 115.19 119C115.175 119 115.161 119 115.146 119C115.132 119 115.117 119 115.103 119C115.088 119 115.074 119 115.059 119C115.045 119 115.03 119 115.016 119C115.001 119 114.987 119 114.972 119C114.957 119 114.943 119 114.928 119C114.913 119 114.899 119 114.884 119C114.869 119 114.855 119 114.84 119C114.825 119 114.81 119 114.795 119C114.781 119 114.766 119 114.751 119C114.736 119 114.721 119 114.706 119C114.691 119 114.677 119 114.662 119C114.647 119 114.632 119 114.617 119C114.602 119 114.587 119 114.572 119C114.557 119 114.542 119 114.527 119C114.511 119 114.496 119 114.481 119C114.466 119 114.451 119 114.436 119C114.421 119 114.405 119 114.39 119C114.375 119 114.36 119 114.344 119C114.329 119 114.314 119 114.299 119C114.283 119 114.268 119 114.253 119C114.237 119 114.222 119 114.207 119C114.191 119 114.176 119 114.16 119C114.145 119 114.129 119 114.114 119C114.098 119 114.083 119 114.067 119C114.052 119 114.036 119 114.021 119C114.005 119 113.99 119 113.974 119C113.958 119 113.943 119 113.927 119C113.911 119 113.896 119 113.88 119C113.864 119 113.849 119 113.833 119C113.817 119 113.801 119 113.786 119C113.77 119 113.754 119 113.738 119C113.722 119 113.707 119 113.691 119C113.675 119 113.659 119 113.643 119C113.627 119 113.611 119 113.595 119C113.579 119 113.563 119 113.547 119C113.531 119 113.515 119 113.499 119C113.483 119 113.467 119 113.451 119C113.435 119 113.419 119 113.403 119C113.387 119 113.37 119 113.354 119C113.338 119 113.322 119 113.306 119C113.29 119 113.273 119 113.257 119C113.241 119 113.225 119 113.208 119C113.192 119 113.176 119 113.159 119C113.143 119 113.127 119 113.11 119C113.094 119 113.078 119 113.061 119C113.045 119 113.028 119 113.012 119C112.996 119 112.979 119 112.963 119C112.946 119 112.93 119 112.913 119C112.897 119 112.88 119 112.863 119C112.847 119 112.83 119 112.814 119C112.797 119 112.781 119 112.764 119C112.747 119 112.731 119 112.714 119C112.697 119 112.681 119 112.664 119C112.647 119 112.63 119 112.614 119C112.597 119 112.58 119 112.563 119C112.547 119 112.53 119 112.513 119C112.496 119 112.479 119 112.462 119C112.445 119 112.429 119 112.412 119C112.395 119 112.378 119 112.361 119C112.344 119 112.327 119 112.31 119C112.293 119 112.276 119 112.259 119C112.242 119 112.225 119 112.208 119C112.191 119 112.174 119 112.157 119C112.14 119 112.122 119 112.105 119C112.088 119 112.071 119 112.054 119C112.037 119 112.02 119 112.002 119C111.985 119 111.968 119 111.951 119C111.933 119 111.916 119 111.899 119C111.882 119 111.864 119 111.847 119C111.83 119 111.812 119 111.795 119C111.778 119 111.76 119 111.743 119C111.726 119 111.708 119 111.691 119C111.673 119 111.656 119 111.639 119C111.621 119 111.604 119 111.586 119C111.569 119 111.551 119 111.534 119C111.516 119 111.499 119 111.481 119C111.464 119 111.446 119 111.428 119C111.411 119 111.393 119 111.376 119C111.358 119 111.34 119 111.323 119C111.305 119 111.287 119 111.27 119C111.252 119 111.234 119 111.217 119C111.199 119 111.181 119 111.163 119C111.146 119 111.128 119 111.11 119C111.092 119 111.074 119 111.057 119C111.039 119 111.021 119 111.003 119C110.985 119 110.967 119 110.949 119C110.932 119 110.914 119 110.896 119C110.878 119 110.86 119 110.842 119C110.824 119 110.806 119 110.788 119C110.77 119 110.752 119 110.734 119C110.716 119 110.698 119 110.68 119C110.662 119 110.644 119 110.626 119C110.608 119 110.59 119 110.572 119C110.553 119 110.535 119 110.517 119C110.499 119 110.481 119 110.463 119C110.444 119 110.426 119 110.408 119C110.39 119 110.372 119 110.353 119C110.335 119 110.317 119 110.299 119C110.28 119 110.262 119 110.244 119C110.226 119 110.207 119 110.189 119C110.171 119 110.152 119 110.134 119C110.116 119 110.097 119 110.079 119C110.06 119 110.042 119 110.024 119C110.005 119 109.987 119 109.968 119C109.95 119 109.931 119 109.913 119C109.895 119 109.876 119 109.858 119C109.839 119 109.821 119 109.802 119C109.783 119 109.765 119 109.746 119C109.728 119 109.709 119 109.691 119C109.672 119 109.653 119 109.635 119C109.616 119 109.598 119 109.579 119C109.56 119 109.542 119 109.523 119C109.504 119 109.486 119 109.467 119C109.448 119 109.43 119 109.411 119C109.392 119 109.373 119 109.355 119C109.336 119 109.317 119 109.298 119C109.279 119 109.261 119 109.242 119C109.223 119 109.204 119 109.185 119C109.167 119 109.148 119 109.129 119C109.11 119 109.091 119 109.072 119C109.053 119 109.034 119 109.016 119C108.997 119 108.978 119 108.959 119C108.94 119 108.921 119 108.902 119C108.883 119 108.864 119 108.845 119C108.826 119 108.807 119 108.788 119C108.769 119 108.75 119 108.731 119C108.712 119 108.693 119 108.674 119C108.655 119 108.636 119 108.616 119C108.597 119 108.578 119 108.559 119C108.54 119 108.521 119 108.502 119C108.483 119 108.463 119 108.444 119C108.425 119 108.406 119 108.387 119C108.368 119 108.348 119 108.329 119C108.31 119 108.291 119 108.271 119C108.252 119 108.233 119 108.214 119C108.194 119 108.175 119 108.156 119C108.137 119 108.117 119 108.098 119C108.079 119 108.059 119 108.04 119C108.021 119 108.001 119 107.982 119C107.963 119 107.943 119 107.924 119C107.904 119 107.885 119 107.866 119C107.846 119 107.827 119 107.807 119C107.788 119 107.769 119 107.749 119C107.73 119 107.71 119 107.691 119C107.671 119 107.652 119 107.632 119C107.613 119 107.593 119 107.574 119C107.554 119 107.535 119 107.515 119C107.496 119 107.476 119 107.457 119C107.437 119 107.417 119 107.398 119C107.378 119 107.359 119 107.339 119C107.319 119 107.3 119 107.28 119C107.261 119 107.241 119 107.221 119C107.202 119 107.182 119 107.162 119C107.143 119 107.123 119 107.103 119C107.084 119 107.064 119 107.044 119C107.025 119 107.005 119 106.985 119C106.965 119 106.946 119 106.926 119C106.906 119 106.886 119 106.867 119C106.847 119 106.827 119 106.807 119C106.788 119 106.768 119 106.748 119C106.728 119 106.708 119 106.689 119C106.669 119 106.649 119 106.629 119C106.609 119 106.589 119 106.569 119C106.55 119 106.53 119 106.51 119C106.49 119 106.47 119 106.45 119C106.43 119 106.41 119 106.39 119C106.371 119 106.351 119 106.331 119C106.311 119 106.291 119 106.271 119C106.251 119 106.231 119 106.211 119C106.191 119 106.171 119 106.151 119C106.131 119 106.111 119 106.091 119C106.071 119 106.051 119 106.031 119C106.011 119 105.991 119 105.971 119C105.951 119 105.931 119 105.911 119C105.891 119 105.871 119 105.851 119C105.831 119 105.81 119 105.79 119C105.77 119 105.75 119 105.73 119C105.71 119 105.69 119 105.67 119C105.65 119 105.63 119 105.609 119C105.589 119 105.569 119 105.549 119C105.529 119 105.509 119 105.488 119C105.468 119 105.448 119 105.428 119C105.408 119 105.388 119 105.367 119C105.347 119 105.327 119 105.307 119C105.287 119 105.266 119 105.246 119C105.226 119 105.206 119 105.185 119C105.165 119 105.145 119 105.125 119C105.104 119 105.084 119 105.064 119C105.044 119 105.023 119 105.003 119C104.983 119 104.962 119 104.942 119C104.922 119 104.902 119 104.881 119C104.861 119 104.841 119 104.82 119C104.8 119 104.78 119 104.759 119C104.739 119 104.719 119 104.698 119C104.678 119 104.657 119 104.637 119C104.617 119 104.596 119 104.576 119C104.556 119 104.535 119 104.515 119C104.494 119 104.474 119 104.454 119C104.433 119 104.413 119 104.392 119C104.372 119 104.352 119 104.331 119C104.311 119 104.29 119 104.27 119C104.249 119 104.229 119 104.208 119C104.188 119 104.168 119 104.147 119C104.127 119 104.106 119 104.086 119C104.065 119 104.045 119 104.024 119C104.004 119 103.983 119 103.963 119C103.942 119 103.922 119 103.901 119C103.881 119 103.86 119 103.84 119C103.819 119 103.799 119 103.778 119C103.758 119 103.737 119 103.717 119C103.696 119 103.675 119 103.655 119C103.634 119 103.614 119 103.593 119C103.573 119 103.552 119 103.531 119C103.511 119 103.49 119 103.47 119C103.449 119 103.429 119 103.408 119C103.387 119 103.367 119 103.346 119C103.326 119 103.305 119 103.284 119C103.264 119 103.243 119 103.223 119C103.202 119 103.181 119 103.161 119C103.14 119 103.119 119 103.099 119C103.078 119 103.058 119 103.037 119C103.016 119 102.996 119 102.975 119C102.954 119 102.934 119 102.913 119C102.892 119 102.872 119 102.851 119C102.83 119 102.81 119 102.789 119C102.768 119 102.748 119 102.727 119C102.706 119 102.686 119 102.665 119C102.644 119 102.623 119 102.603 119C102.582 119 102.561 119 102.541 119C102.52 119 102.499 119 102.478 119C102.458 119 102.437 119 102.416 119C102.396 119 102.375 119 102.354 119C102.333 119 102.313 119 102.292 119C102.271 119 102.251 119 102.23 119C102.209 119 102.188 119 102.168 119C102.147 119 102.126 119 102.105 119C102.085 119 102.064 119 102.043 119C102.022 119 102.002 119 101.981 119C101.96 119 101.939 119 101.918 119C101.898 119 101.877 119 101.856 119C101.835 119 101.815 119 101.794 119C101.773 119 101.752 119 101.732 119C101.711 119 101.69 119 101.669 119C101.648 119 101.628 119 101.607 119C101.586 119 101.565 119 101.544 119C101.524 119 101.503 119 101.482 119C101.461 119 101.44 119 101.42 119C101.399 119 101.378 119 101.357 119C101.336 119 101.316 119 101.295 119C101.274 119 101.253 119 101.232 119C101.212 119 101.191 119 101.17 119C101.149 119 101.128 119 101.107 119C101.087 119 101.066 119 101.045 119C101.024 119 101.003 119 100.983 119C100.962 119 100.941 119 100.92 119C100.899 119 100.878 119 100.858 119C100.837 119 100.816 119 100.795 119C100.774 119 100.753 119 100.733 119C100.712 119 100.691 119 100.67 119C100.649 119 100.628 119 100.608 119C100.587 119 100.566 119 100.545 119C100.524 119 100.503 119 100.483 119C100.462 119 100.441 119 100.42 119C100.399 119 100.378 119 100.358 119C100.337 119 100.316 119 100.295 119C100.274 119 100.253 119 100.233 119C100.212 119 100.191 119 100.17 119C100.149 119 100.128 119 100.107 119C100.087 119 100.066 119 100.045 119C100.024 119 100.003 119 99.9824 119C99.9616 119 99.9408 119 99.9199 119C99.8991 119 99.8782 119 99.8574 119C99.8366 119 99.8157 119 99.7949 119C99.7741 119 99.7532 119 99.7324 119C99.7115 119 99.6907 119 99.6699 119C99.649 119 99.6282 119 99.6074 119C99.5865 119 99.5657 119 99.5449 119C99.524 119 99.5032 119 99.4824 119C99.4615 119 99.4407 119 99.4199 119C99.399 119 99.3782 119 99.3574 119C99.3366 119 99.3157 119 99.2949 119C99.2741 119 99.2533 119 99.2324 119C99.2116 119 99.1908 119 99.17 119C99.1492 119 99.1283 119 99.1075 119C99.0867 119 99.0659 119 99.0451 119C99.0243 119 99.0035 119 98.9827 119C98.9618 119 98.941 119 98.9202 119C98.8994 119 98.8786 119 98.8578 119C98.837 119 98.8162 119 98.7954 119C98.7746 119 98.7538 119 98.733 119C98.7122 119 98.6914 119 98.6706 119C98.6498 119 98.629 119 98.6083 119C98.5875 119 98.5667 119 98.5459 119C98.5251 119 98.5043 119 98.4836 119C98.4628 119 98.442 119 98.4212 119C98.4005 119 98.3797 119 98.3589 119C98.3382 119 98.3174 119 98.2966 119C98.2759 119 98.2551 119 98.2343 119C98.2136 119 98.1928 119 98.1721 119C98.1513 119 98.1306 119 98.1098 119C98.0891 119 98.0683 119 98.0476 119C98.0268 119 98.0061 119 97.9854 119C97.9646 119 97.9439 119 97.9232 119C97.9025 119 97.8817 119 97.861 119C97.8403 119 97.8196 119 97.7988 119C97.7781 119 97.7574 119 97.7367 119C97.716 119 97.6953 119 97.6746 119C97.6539 119 97.6332 119 97.6125 119C97.5918 119 97.5711 119 97.5504 119C97.5297 119 97.509 119 97.4884 119C97.4677 119 97.447 119 97.4263 119C97.4057 119 97.385 119 97.3643 119C97.3437 119 97.323 119 97.3024 119C97.2817 119 97.261 119 97.2404 119C97.2197 119 97.1991 119 97.1785 119C97.1578 119 97.1372 119 97.1166 119C97.0959 119 97.0753 119 97.0547 119C97.034 119 97.0134 119 96.9928 119C96.9722 119 96.9516 119 96.931 119C96.9104 119 96.8898 119 96.8692 119C96.8486 119 96.828 119 96.8074 119C96.7868 119 96.7662 119 96.7457 119C96.7251 119 96.7045 119 96.684 119C96.6634 119 96.6428 119 96.6223 119C96.6017 119 96.5812 119 96.5606 119C96.5401 119 96.5195 119 96.499 119C96.4785 119 96.4579 119 96.4374 119C96.4169 119 96.3963 119 96.3758 119C96.3553 119 96.3348 119 96.3143 119C96.2938 119 96.2733 119 96.2528 119C96.2323 119 96.2118 119 96.1913 119C96.1709 119 96.1504 119 96.1299 119C96.1094 119 96.089 119 96.0685 119C96.0481 119 96.0276 119 96.0072 119C95.9867 119 95.9663 119 95.9458 119C95.9254 119 95.905 119 95.8846 119C95.8641 119 95.8437 119 95.8233 119C95.8029 119 95.7825 119 95.7621 119C95.7417 119 95.7213 119 95.7009 119C95.6805 119 95.6602 119 95.6398 119C95.6194 119 95.599 119 95.5787 119C95.5583 119 95.538 119 95.5176 119C95.4973 119 95.4769 119 95.4566 119C95.4363 119 95.4159 119 95.3956 119C95.3753 119 95.355 119 95.3347 119C95.3144 119 95.2941 119 95.2738 119C95.2535 119 95.2332 119 95.2129 119C95.1927 119 95.1724 119 95.1521 119C95.1319 119 95.1116 119 95.0914 119C95.0711 119 95.0509 119 95.0306 119C95.0104 119 94.9902 119 94.97 119C94.9497 119 94.9295 119 94.9093 119C94.8891 119 94.8689 119 94.8487 119C94.8285 119 94.8084 119 94.7882 119C94.768 119 94.7478 119 94.7277 119C94.7075 119 94.6874 119 94.6672 119C94.6471 119 94.627 119 94.6068 119C94.5867 119 94.5666 119 94.5465 119C94.5264 119 94.5063 119 94.4862 119C94.4661 119 94.446 119 94.4259 119C94.4058 119 94.3858 119 94.3657 119C94.3456 119 94.3256 119 94.3055 119C94.2855 119 94.2655 119 94.2454 119C94.2254 119 94.2054 119 94.1854 119C94.1654 119 94.1454 119 94.1254 119C94.1054 119 94.0854 119 94.0654 119C94.0454 119 94.0255 119 94.0055 119C93.9856 119 93.9656 119 93.9457 119C93.9257 119 93.9058 119 93.8859 119C93.8659 119 93.846 119 93.8261 119C93.8062 119 93.7863 119 93.7664 119C93.7466 119 93.7267 119 93.7068 119C93.687 119 93.6671 119 93.6472 119C93.6274 119 93.6076 119 93.5877 119C93.5679 119 93.5481 119 93.5283 119C93.5085 119 93.4887 119 93.4689 119C93.4491 119 93.4293 119 93.4095 119C93.3898 119 93.37 119 93.3502 119C93.3305 119 93.3107 119 93.291 119C93.2713 119 93.2516 119 93.2318 119C93.2121 119 93.1924 119 93.1727 119C93.1531 119 93.1334 119 93.1137 119C93.094 119 93.0744 119 93.0547 119C93.0351 119 93.0154 119 92.9958 119C92.9762 119 92.9565 119 92.9369 119C92.9173 119 92.8977 119 92.8781 119C92.8586 119 92.839 119 92.8194 119C92.7998 119 92.7803 119 92.7607 119C92.7412 119 92.7217 119 92.7021 119C92.6826 119 92.6631 119 92.6436 119C92.6241 119 92.6046 119 92.5851 119C92.5656 119 92.5462 119 92.5267 119C92.5073 119 92.4878 119 92.4684 119C92.4489 119 92.4295 119 92.4101 119C92.3907 119 92.3713 119 92.3519 119C92.3325 119 92.3131 119 92.2938 119C92.2744 119 92.255 119 92.2357 119C92.2164 119 92.197 119 92.1777 119C92.1584 119 92.1391 119 92.1198 119C92.1005 119 92.0812 119 92.0619 119C92.0426 119 92.0234 119 92.0041 119C91.9849 119 91.9656 119 91.9464 119C91.9272 119 91.908 119 91.8888 119C91.8696 119 91.8504 119 91.8312 119C91.812 119 91.7929 119 91.7737 119C91.7545 119 91.7354 119 91.7163 119C91.6971 119 91.678 119 91.6589 119C91.6398 119 91.6207 119 91.6017 119C91.5826 119 91.5635 119 91.5445 119C91.5254 119 91.5064 119 91.4873 119C91.4683 119 91.4493 119 91.4303 119C91.4113 119 91.3923 119 91.3733 119C91.3543 119 91.3354 119 91.3164 119C91.2975 119 91.2785 119 91.2596 119C91.2407 119 91.2218 119 91.2029 119C91.184 119 91.1651 119 91.1462 119C91.1273 119 91.1085 119 91.0896 119C91.0708 119 91.052 119 91.0331 119C91.0143 119 90.9955 119 90.9767 119V123V127C90.9955 127 91.0143 127 91.0331 127C91.052 127 91.0708 127 91.0896 127C91.1085 127 91.1273 127 91.1462 127C91.1651 127 91.184 127 91.2029 127C91.2218 127 91.2407 127 91.2596 127C91.2785 127 91.2975 127 91.3164 127C91.3354 127 91.3543 127 91.3733 127C91.3923 127 91.4113 127 91.4303 127C91.4493 127 91.4683 127 91.4873 127C91.5064 127 91.5254 127 91.5445 127C91.5635 127 91.5826 127 91.6017 127C91.6207 127 91.6398 127 91.6589 127C91.678 127 91.6971 127 91.7163 127C91.7354 127 91.7545 127 91.7737 127C91.7929 127 91.812 127 91.8312 127C91.8504 127 91.8696 127 91.8888 127C91.908 127 91.9272 127 91.9464 127C91.9656 127 91.9849 127 92.0041 127C92.0234 127 92.0426 127 92.0619 127C92.0812 127 92.1005 127 92.1198 127C92.1391 127 92.1584 127 92.1777 127C92.197 127 92.2164 127 92.2357 127C92.255 127 92.2744 127 92.2938 127C92.3131 127 92.3325 127 92.3519 127C92.3713 127 92.3907 127 92.4101 127C92.4295 127 92.4489 127 92.4684 127C92.4878 127 92.5073 127 92.5267 127C92.5462 127 92.5656 127 92.5851 127C92.6046 127 92.6241 127 92.6436 127C92.6631 127 92.6826 127 92.7021 127C92.7217 127 92.7412 127 92.7607 127C92.7803 127 92.7998 127 92.8194 127C92.839 127 92.8586 127 92.8781 127C92.8977 127 92.9173 127 92.9369 127C92.9565 127 92.9762 127 92.9958 127C93.0154 127 93.0351 127 93.0547 127C93.0744 127 93.094 127 93.1137 127C93.1334 127 93.1531 127 93.1727 127C93.1924 127 93.2121 127 93.2318 127C93.2516 127 93.2713 127 93.291 127C93.3107 127 93.3305 127 93.3502 127C93.37 127 93.3898 127 93.4095 127C93.4293 127 93.4491 127 93.4689 127C93.4887 127 93.5085 127 93.5283 127C93.5481 127 93.5679 127 93.5877 127C93.6076 127 93.6274 127 93.6472 127C93.6671 127 93.687 127 93.7068 127C93.7267 127 93.7466 127 93.7664 127C93.7863 127 93.8062 127 93.8261 127C93.846 127 93.8659 127 93.8859 127C93.9058 127 93.9257 127 93.9457 127C93.9656 127 93.9856 127 94.0055 127C94.0255 127 94.0454 127 94.0654 127C94.0854 127 94.1054 127 94.1254 127C94.1454 127 94.1654 127 94.1854 127C94.2054 127 94.2254 127 94.2454 127C94.2655 127 94.2855 127 94.3055 127C94.3256 127 94.3456 127 94.3657 127C94.3858 127 94.4058 127 94.4259 127C94.446 127 94.4661 127 94.4862 127C94.5063 127 94.5264 127 94.5465 127C94.5666 127 94.5867 127 94.6068 127C94.627 127 94.6471 127 94.6672 127C94.6874 127 94.7075 127 94.7277 127C94.7478 127 94.768 127 94.7882 127C94.8084 127 94.8285 127 94.8487 127C94.8689 127 94.8891 127 94.9093 127C94.9295 127 94.9497 127 94.97 127C94.9902 127 95.0104 127 95.0306 127C95.0509 127 95.0711 127 95.0914 127C95.1116 127 95.1319 127 95.1521 127C95.1724 127 95.1927 127 95.2129 127C95.2332 127 95.2535 127 95.2738 127C95.2941 127 95.3144 127 95.3347 127C95.355 127 95.3753 127 95.3956 127C95.4159 127 95.4363 127 95.4566 127C95.4769 127 95.4973 127 95.5176 127C95.538 127 95.5583 127 95.5787 127C95.599 127 95.6194 127 95.6398 127C95.6602 127 95.6805 127 95.7009 127C95.7213 127 95.7417 127 95.7621 127C95.7825 127 95.8029 127 95.8233 127C95.8437 127 95.8641 127 95.8846 127C95.905 127 95.9254 127 95.9458 127C95.9663 127 95.9867 127 96.0072 127C96.0276 127 96.0481 127 96.0685 127C96.089 127 96.1094 127 96.1299 127C96.1504 127 96.1709 127 96.1913 127C96.2118 127 96.2323 127 96.2528 127C96.2733 127 96.2938 127 96.3143 127C96.3348 127 96.3553 127 96.3758 127C96.3963 127 96.4169 127 96.4374 127C96.4579 127 96.4785 127 96.499 127C96.5195 127 96.5401 127 96.5606 127C96.5812 127 96.6017 127 96.6223 127C96.6428 127 96.6634 127 96.684 127C96.7045 127 96.7251 127 96.7457 127C96.7662 127 96.7868 127 96.8074 127C96.828 127 96.8486 127 96.8692 127C96.8898 127 96.9104 127 96.931 127C96.9516 127 96.9722 127 96.9928 127C97.0134 127 97.034 127 97.0547 127C97.0753 127 97.0959 127 97.1166 127C97.1372 127 97.1578 127 97.1785 127C97.1991 127 97.2197 127 97.2404 127C97.261 127 97.2817 127 97.3024 127C97.323 127 97.3437 127 97.3643 127C97.385 127 97.4057 127 97.4263 127C97.447 127 97.4677 127 97.4884 127C97.509 127 97.5297 127 97.5504 127C97.5711 127 97.5918 127 97.6125 127C97.6332 127 97.6539 127 97.6746 127C97.6953 127 97.716 127 97.7367 127C97.7574 127 97.7781 127 97.7988 127C97.8196 127 97.8403 127 97.861 127C97.8817 127 97.9025 127 97.9232 127C97.9439 127 97.9646 127 97.9854 127C98.0061 127 98.0268 127 98.0476 127C98.0683 127 98.0891 127 98.1098 127C98.1306 127 98.1513 127 98.1721 127C98.1928 127 98.2136 127 98.2343 127C98.2551 127 98.2759 127 98.2966 127C98.3174 127 98.3382 127 98.3589 127C98.3797 127 98.4005 127 98.4212 127C98.442 127 98.4628 127 98.4836 127C98.5043 127 98.5251 127 98.5459 127C98.5667 127 98.5875 127 98.6083 127C98.629 127 98.6498 127 98.6706 127C98.6914 127 98.7122 127 98.733 127C98.7538 127 98.7746 127 98.7954 127C98.8162 127 98.837 127 98.8578 127C98.8786 127 98.8994 127 98.9202 127C98.941 127 98.9618 127 98.9827 127C99.0035 127 99.0243 127 99.0451 127C99.0659 127 99.0867 127 99.1075 127C99.1283 127 99.1492 127 99.17 127C99.1908 127 99.2116 127 99.2324 127C99.2533 127 99.2741 127 99.2949 127C99.3157 127 99.3366 127 99.3574 127C99.3782 127 99.399 127 99.4199 127C99.4407 127 99.4615 127 99.4824 127C99.5032 127 99.524 127 99.5449 127C99.5657 127 99.5865 127 99.6074 127C99.6282 127 99.649 127 99.6699 127C99.6907 127 99.7115 127 99.7324 127C99.7532 127 99.7741 127 99.7949 127C99.8157 127 99.8366 127 99.8574 127C99.8782 127 99.8991 127 99.9199 127C99.9408 127 99.9616 127 99.9824 127C100.003 127 100.024 127 100.045 127C100.066 127 100.087 127 100.107 127C100.128 127 100.149 127 100.17 127C100.191 127 100.212 127 100.233 127C100.253 127 100.274 127 100.295 127C100.316 127 100.337 127 100.358 127C100.378 127 100.399 127 100.42 127C100.441 127 100.462 127 100.483 127C100.503 127 100.524 127 100.545 127C100.566 127 100.587 127 100.608 127C100.628 127 100.649 127 100.67 127C100.691 127 100.712 127 100.733 127C100.753 127 100.774 127 100.795 127C100.816 127 100.837 127 100.858 127C100.878 127 100.899 127 100.92 127C100.941 127 100.962 127 100.983 127C101.003 127 101.024 127 101.045 127C101.066 127 101.087 127 101.107 127C101.128 127 101.149 127 101.17 127C101.191 127 101.212 127 101.232 127C101.253 127 101.274 127 101.295 127C101.316 127 101.336 127 101.357 127C101.378 127 101.399 127 101.42 127C101.44 127 101.461 127 101.482 127C101.503 127 101.524 127 101.544 127C101.565 127 101.586 127 101.607 127C101.628 127 101.648 127 101.669 127C101.69 127 101.711 127 101.732 127C101.752 127 101.773 127 101.794 127C101.815 127 101.835 127 101.856 127C101.877 127 101.898 127 101.918 127C101.939 127 101.96 127 101.981 127C102.002 127 102.022 127 102.043 127C102.064 127 102.085 127 102.105 127C102.126 127 102.147 127 102.168 127C102.188 127 102.209 127 102.23 127C102.251 127 102.271 127 102.292 127C102.313 127 102.333 127 102.354 127C102.375 127 102.396 127 102.416 127C102.437 127 102.458 127 102.478 127C102.499 127 102.52 127 102.541 127C102.561 127 102.582 127 102.603 127C102.623 127 102.644 127 102.665 127C102.686 127 102.706 127 102.727 127C102.748 127 102.768 127 102.789 127C102.81 127 102.83 127 102.851 127C102.872 127 102.892 127 102.913 127C102.934 127 102.954 127 102.975 127C102.996 127 103.016 127 103.037 127C103.058 127 103.078 127 103.099 127C103.119 127 103.14 127 103.161 127C103.181 127 103.202 127 103.223 127C103.243 127 103.264 127 103.284 127C103.305 127 103.326 127 103.346 127C103.367 127 103.387 127 103.408 127C103.429 127 103.449 127 103.47 127C103.49 127 103.511 127 103.531 127C103.552 127 103.573 127 103.593 127C103.614 127 103.634 127 103.655 127C103.675 127 103.696 127 103.717 127C103.737 127 103.758 127 103.778 127C103.799 127 103.819 127 103.84 127C103.86 127 103.881 127 103.901 127C103.922 127 103.942 127 103.963 127C103.983 127 104.004 127 104.024 127C104.045 127 104.065 127 104.086 127C104.106 127 104.127 127 104.147 127C104.168 127 104.188 127 104.208 127C104.229 127 104.249 127 104.27 127C104.29 127 104.311 127 104.331 127C104.352 127 104.372 127 104.392 127C104.413 127 104.433 127 104.454 127C104.474 127 104.494 127 104.515 127C104.535 127 104.556 127 104.576 127C104.596 127 104.617 127 104.637 127C104.657 127 104.678 127 104.698 127C104.719 127 104.739 127 104.759 127C104.78 127 104.8 127 104.82 127C104.841 127 104.861 127 104.881 127C104.902 127 104.922 127 104.942 127C104.962 127 104.983 127 105.003 127C105.023 127 105.044 127 105.064 127C105.084 127 105.104 127 105.125 127C105.145 127 105.165 127 105.185 127C105.206 127 105.226 127 105.246 127C105.266 127 105.287 127 105.307 127C105.327 127 105.347 127 105.367 127C105.388 127 105.408 127 105.428 127C105.448 127 105.468 127 105.488 127C105.509 127 105.529 127 105.549 127C105.569 127 105.589 127 105.609 127C105.63 127 105.65 127 105.67 127C105.69 127 105.71 127 105.73 127C105.75 127 105.77 127 105.79 127C105.81 127 105.831 127 105.851 127C105.871 127 105.891 127 105.911 127C105.931 127 105.951 127 105.971 127C105.991 127 106.011 127 106.031 127C106.051 127 106.071 127 106.091 127C106.111 127 106.131 127 106.151 127C106.171 127 106.191 127 106.211 127C106.231 127 106.251 127 106.271 127C106.291 127 106.311 127 106.331 127C106.351 127 106.371 127 106.39 127C106.41 127 106.43 127 106.45 127C106.47 127 106.49 127 106.51 127C106.53 127 106.55 127 106.569 127C106.589 127 106.609 127 106.629 127C106.649 127 106.669 127 106.689 127C106.708 127 106.728 127 106.748 127C106.768 127 106.788 127 106.807 127C106.827 127 106.847 127 106.867 127C106.886 127 106.906 127 106.926 127C106.946 127 106.965 127 106.985 127C107.005 127 107.025 127 107.044 127C107.064 127 107.084 127 107.103 127C107.123 127 107.143 127 107.162 127C107.182 127 107.202 127 107.221 127C107.241 127 107.261 127 107.28 127C107.3 127 107.319 127 107.339 127C107.359 127 107.378 127 107.398 127C107.417 127 107.437 127 107.457 127C107.476 127 107.496 127 107.515 127C107.535 127 107.554 127 107.574 127C107.593 127 107.613 127 107.632 127C107.652 127 107.671 127 107.691 127C107.71 127 107.73 127 107.749 127C107.769 127 107.788 127 107.807 127C107.827 127 107.846 127 107.866 127C107.885 127 107.904 127 107.924 127C107.943 127 107.963 127 107.982 127C108.001 127 108.021 127 108.04 127C108.059 127 108.079 127 108.098 127C108.117 127 108.137 127 108.156 127C108.175 127 108.194 127 108.214 127C108.233 127 108.252 127 108.271 127C108.291 127 108.31 127 108.329 127C108.348 127 108.368 127 108.387 127C108.406 127 108.425 127 108.444 127C108.463 127 108.483 127 108.502 127C108.521 127 108.54 127 108.559 127C108.578 127 108.597 127 108.616 127C108.636 127 108.655 127 108.674 127C108.693 127 108.712 127 108.731 127C108.75 127 108.769 127 108.788 127C108.807 127 108.826 127 108.845 127C108.864 127 108.883 127 108.902 127C108.921 127 108.94 127 108.959 127C108.978 127 108.997 127 109.016 127C109.034 127 109.053 127 109.072 127C109.091 127 109.11 127 109.129 127C109.148 127 109.167 127 109.185 127C109.204 127 109.223 127 109.242 127C109.261 127 109.279 127 109.298 127C109.317 127 109.336 127 109.355 127C109.373 127 109.392 127 109.411 127C109.43 127 109.448 127 109.467 127C109.486 127 109.504 127 109.523 127C109.542 127 109.56 127 109.579 127C109.598 127 109.616 127 109.635 127C109.653 127 109.672 127 109.691 127C109.709 127 109.728 127 109.746 127C109.765 127 109.783 127 109.802 127C109.821 127 109.839 127 109.858 127C109.876 127 109.895 127 109.913 127C109.931 127 109.95 127 109.968 127C109.987 127 110.005 127 110.024 127C110.042 127 110.06 127 110.079 127C110.097 127 110.116 127 110.134 127C110.152 127 110.171 127 110.189 127C110.207 127 110.226 127 110.244 127C110.262 127 110.28 127 110.299 127C110.317 127 110.335 127 110.353 127C110.372 127 110.39 127 110.408 127C110.426 127 110.444 127 110.463 127C110.481 127 110.499 127 110.517 127C110.535 127 110.553 127 110.572 127C110.59 127 110.608 127 110.626 127C110.644 127 110.662 127 110.68 127C110.698 127 110.716 127 110.734 127C110.752 127 110.77 127 110.788 127C110.806 127 110.824 127 110.842 127C110.86 127 110.878 127 110.896 127C110.914 127 110.932 127 110.949 127C110.967 127 110.985 127 111.003 127C111.021 127 111.039 127 111.057 127C111.074 127 111.092 127 111.11 127C111.128 127 111.146 127 111.163 127C111.181 127 111.199 127 111.217 127C111.234 127 111.252 127 111.27 127C111.287 127 111.305 127 111.323 127C111.34 127 111.358 127 111.376 127C111.393 127 111.411 127 111.428 127C111.446 127 111.464 127 111.481 127C111.499 127 111.516 127 111.534 127C111.551 127 111.569 127 111.586 127C111.604 127 111.621 127 111.639 127C111.656 127 111.673 127 111.691 127C111.708 127 111.726 127 111.743 127C111.76 127 111.778 127 111.795 127C111.812 127 111.83 127 111.847 127C111.864 127 111.882 127 111.899 127C111.916 127 111.933 127 111.951 127C111.968 127 111.985 127 112.002 127C112.02 127 112.037 127 112.054 127C112.071 127 112.088 127 112.105 127C112.122 127 112.14 127 112.157 127C112.174 127 112.191 127 112.208 127C112.225 127 112.242 127 112.259 127C112.276 127 112.293 127 112.31 127C112.327 127 112.344 127 112.361 127C112.378 127 112.395 127 112.412 127C112.429 127 112.445 127 112.462 127C112.479 127 112.496 127 112.513 127C112.53 127 112.547 127 112.563 127C112.58 127 112.597 127 112.614 127C112.63 127 112.647 127 112.664 127C112.681 127 112.697 127 112.714 127C112.731 127 112.747 127 112.764 127C112.781 127 112.797 127 112.814 127C112.83 127 112.847 127 112.863 127C112.88 127 112.897 127 112.913 127C112.93 127 112.946 127 112.963 127C112.979 127 112.996 127 113.012 127C113.028 127 113.045 127 113.061 127C113.078 127 113.094 127 113.11 127C113.127 127 113.143 127 113.159 127C113.176 127 113.192 127 113.208 127C113.225 127 113.241 127 113.257 127C113.273 127 113.29 127 113.306 127C113.322 127 113.338 127 113.354 127C113.37 127 113.387 127 113.403 127C113.419 127 113.435 127 113.451 127C113.467 127 113.483 127 113.499 127C113.515 127 113.531 127 113.547 127C113.563 127 113.579 127 113.595 127C113.611 127 113.627 127 113.643 127C113.659 127 113.675 127 113.691 127C113.707 127 113.722 127 113.738 127C113.754 127 113.77 127 113.786 127C113.801 127 113.817 127 113.833 127C113.849 127 113.864 127 113.88 127C113.896 127 113.911 127 113.927 127C113.943 127 113.958 127 113.974 127C113.99 127 114.005 127 114.021 127C114.036 127 114.052 127 114.067 127C114.083 127 114.098 127 114.114 127C114.129 127 114.145 127 114.16 127C114.176 127 114.191 127 114.207 127C114.222 127 114.237 127 114.253 127C114.268 127 114.283 127 114.299 127C114.314 127 114.329 127 114.344 127C114.36 127 114.375 127 114.39 127C114.405 127 114.421 127 114.436 127C114.451 127 114.466 127 114.481 127C114.496 127 114.511 127 114.527 127C114.542 127 114.557 127 114.572 127C114.587 127 114.602 127 114.617 127C114.632 127 114.647 127 114.662 127C114.677 127 114.691 127 114.706 127C114.721 127 114.736 127 114.751 127C114.766 127 114.781 127 114.795 127C114.81 127 114.825 127 114.84 127C114.855 127 114.869 127 114.884 127C114.899 127 114.913 127 114.928 127C114.943 127 114.957 127 114.972 127C114.987 127 115.001 127 115.016 127C115.03 127 115.045 127 115.059 127C115.074 127 115.088 127 115.103 127C115.117 127 115.132 127 115.146 127C115.161 127 115.175 127 115.19 127C115.204 127 115.218 127 115.233 127C115.247 127 115.261 127 115.275 127C115.29 127 115.304 127 115.318 127C115.333 127 115.347 127 115.361 127C115.375 127 115.389 127 115.403 127C115.418 127 115.432 127 115.446 127C115.46 127 115.474 127 115.488 127C115.502 127 115.516 127 115.53 127C115.544 127 115.558 127 115.572 127C115.586 127 115.6 127 115.614 127C115.627 127 115.641 127 115.655 127C115.669 127 115.683 127 115.697 127C115.71 127 115.724 127 115.738 127C115.752 127 115.765 127 115.779 127C115.793 127 115.806 127 115.82 127C115.834 127 115.847 127 115.861 127C115.874 127 115.888 127 115.902 127C115.915 127 115.929 127 115.942 127C115.956 127 115.969 127 115.982 127C115.996 127 116.009 127 116.023 127C116.036 127 116.049 127 116.063 127C116.076 127 116.089 127 116.103 127C116.116 127 116.129 127 116.142 127C116.156 127 116.169 127 116.182 127C116.195 127 116.208 127 116.221 127C116.235 127 116.248 127 116.261 127C116.274 127 116.287 127 116.3 127C116.313 127 116.326 127 116.339 127C116.352 127 116.365 127 116.378 127C116.391 127 116.403 127 116.416 127C116.429 127 116.442 127 116.455 127C116.468 127 116.48 127 116.493 127C116.506 127 116.519 127 116.531 127C116.544 127 116.557 127 116.569 127C116.582 127 116.595 127 116.607 127C116.62 127 116.632 127 116.645 127C116.657 127 116.67 127 116.682 127C116.695 127 116.707 127 116.72 127C116.732 127 116.744 127 116.757 127C116.769 127 116.782 127 116.794 127C116.806 127 116.818 127 116.831 127C116.843 127 116.855 127 116.867 127C116.88 127 116.892 127 116.904 127C116.916 127 116.928 127 116.94 127C116.952 127 116.964 127 116.976 127C116.988 127 117.001 127 117.012 127C117.024 127 117.036 127 117.048 127C117.06 127 117.072 127 117.084 127C117.096 127 117.108 127 117.12 127C117.131 127 117.143 127 117.155 127C117.167 127 117.178 127 117.19 127C117.202 127 117.213 127 117.225 127C117.237 127 117.248 127 117.26 127C117.271 127 117.283 127 117.294 127C117.306 127 117.318 127 117.329 127C117.34 127 117.352 127 117.363 127C117.375 127 117.386 127 117.397 127C117.409 127 117.42 127 117.431 127C117.443 127 117.454 127 117.465 127C117.476 127 117.488 127 117.499 127C117.51 127 117.521 127 117.532 127C117.543 127 117.554 127 117.565 127C117.576 127 117.587 127 117.598 127C117.609 127 117.62 127 117.631 127C117.642 127 117.653 127 117.664 127C117.675 127 117.686 127 117.697 127C117.707 127 117.718 127 117.729 127C117.74 127 117.75 127 117.761 127C117.772 127 117.783 127 117.793 127C117.804 127 117.814 127 117.825 127C117.836 127 117.846 127 117.857 127C117.867 127 117.878 127 117.888 127C117.899 127 117.909 127 117.919 127C117.93 127 117.94 127 117.95 127C117.961 127 117.971 127 117.981 127C117.992 127 118.002 127 118.012 127C118.022 127 118.032 127 118.043 127C118.053 127 118.063 127 118.073 127C118.083 127 118.093 127 118.103 127C118.113 127 118.123 127 118.133 127C118.143 127 118.153 127 118.163 127C118.173 127 118.183 127 118.192 127C118.202 127 118.212 127 118.222 127C118.232 127 118.241 127 118.251 127C118.261 127 118.27 127 118.28 127C118.29 127 118.299 127 118.309 127C118.318 127 118.328 127 118.338 127C118.347 127 118.357 127 118.366 127C118.375 127 118.385 127 118.394 127C118.404 127 118.413 127 118.422 127C118.432 127 118.441 127 118.45 127C118.459 127 118.469 127 118.478 127V123ZM85.9779 118H89.9779V68H85.9779H81.9779V118H85.9779ZM90.9779 63V67H134.478V63V59H90.9779V63ZM139.478 58H143.478V17H139.478H135.478V58H139.478ZM144.478 12V16H201.978V12V8H144.478V12ZM206.978 17H202.978V58H206.978H210.978V17H206.978ZM211.978 63V67H251.478V63V59H211.978V63ZM256.478 68H252.478V118H256.478H260.478V68H256.478ZM251.478 123V119H211.978V123V127H251.478V123ZM206.978 128H202.978V169.5H206.978H210.978V128H206.978ZM201.978 174.5V170.5H150.478V174.5V178.5H201.978V174.5ZM206.978 169.5H202.978C202.978 170.052 202.53 170.5 201.978 170.5V174.5V178.5C206.948 178.5 210.978 174.471 210.978 169.5H206.978ZM211.978 123V119C207.007 119 202.978 123.029 202.978 128H206.978H210.978C210.978 127.448 211.426 127 211.978 127V123ZM256.478 118H252.478C252.478 118.552 252.03 119 251.478 119V123V127C256.448 127 260.478 122.971 260.478 118H256.478ZM251.478 63V67C252.03 67 252.478 67.4477 252.478 68H256.478H260.478C260.478 63.0294 256.448 59 251.478 59V63ZM206.978 58H202.978C202.978 62.9706 207.007 67 211.978 67V63V59C211.426 59 210.978 58.5523 210.978 58H206.978ZM201.978 12V16C202.53 16 202.978 16.4477 202.978 17H206.978H210.978C210.978 12.0294 206.948 8 201.978 8V12ZM139.478 17H143.478C143.478 16.4477 143.926 16 144.478 16V12V8C139.507 8 135.478 12.0294 135.478 17H139.478ZM134.478 63V67C139.448 67 143.478 62.9706 143.478 58H139.478H135.478C135.478 58.5523 135.03 59 134.478 59V63ZM85.9779 68H89.9779C89.9779 67.4477 90.4256 67 90.9779 67V63V59C86.0073 59 81.9779 63.0294 81.9779 68H85.9779ZM90.9767 123V119C90.4257 119 89.9779 118.554 89.9779 118H85.9779H81.9779C81.9779 122.969 86.0049 127 90.9767 127V123Z" fill="#5CD0F3"/>
</g>
<g filter="url(#filter5_d_509_116)">
<path d="M130.654 126C130.654 127.2 130.654 144 130.654 148.5C130.654 153 131.654 157.5 135.154 160C138.654 162.5 141.154 163.417 144.154 163.5C147.154 163.583 150.154 162.851 152.654 161C155.154 159.149 157.654 153 157.654 153" stroke="#0B5383" stroke-width="6"/>
<path d="M114.154 78.5C114.154 78.5 110.154 78.0001 105.654 81.5C101.154 85 106.829 104.577 109.654 109.5C112.48 114.423 115.345 118.987 119.654 122C123.963 125.013 132.654 124.5 132.654 124.5" stroke="#0B5383" stroke-width="6"/>
<path d="M121.154 78C121.154 81.3137 119.14 84 116.654 84C114.169 84 112.154 84 112.154 78C112.154 72 114.169 72 116.654 72C119.14 72 121.154 74.6863 121.154 78Z" fill="#0B5383"/>
<path d="M148.654 78.5C148.654 78.5 153.154 77.5 157.154 81.5C161.154 85.5001 155.98 104.577 153.154 109.5C150.329 114.423 147.463 118.987 143.154 122C138.845 125.013 130.154 124.5 130.154 124.5" stroke="#0B5383" stroke-width="6"/>
<path d="M141.654 78C141.654 81.3137 143.669 84 146.154 84C148.64 84 150.654 84 150.654 78C150.654 72 148.64 72 146.154 72C143.669 72 141.654 74.6863 141.654 78Z" fill="#0B5383"/>
<circle cx="157.654" cy="144.5" r="7.5" stroke="#0B5383" stroke-width="6"/>
</g>
</g>
</g>
<defs>
<filter id="filter0_d_509_116" x="0" y="0" width="330.558" height="321.64" filterUnits="userSpaceOnUse" color-interpolation-filters="sRGB">
<feFlood flood-opacity="0" result="BackgroundImageFix"/>
<feColorMatrix in="SourceAlpha" type="matrix" values="0 0 0 0 0 0 0 0 0 0 0 0 0 0 0 0 0 0 127 0" result="hardAlpha"/>
<feOffset dx="3" dy="2"/>
<feGaussianBlur stdDeviation="5"/>
<feComposite in2="hardAlpha" operator="out"/>
<feColorMatrix type="matrix" values="0 0 0 0 0.523077 0 0 0 0 0.523077 0 0 0 0 0.523077 0 0 0 0.05 0"/>
<feBlend mode="normal" in2="BackgroundImageFix" result="effect1_dropShadow_509_116"/>
<feBlend mode="normal" in="SourceGraphic" in2="effect1_dropShadow_509_116" result="shape"/>
</filter>
<filter id="filter1_d_509_116" x="5" y="205.16" width="318.558" height="112.48" filterUnits="userSpaceOnUse" color-interpolation-filters="sRGB">
<feFlood flood-opacity="0" result="BackgroundImageFix"/>
<feColorMatrix in="SourceAlpha" type="matrix" values="0 0 0 0 0 0 0 0 0 0 0 0 0 0 0 0 0 0 127 0" result="hardAlpha"/>
<feOffset dx="2" dy="4"/>
<feGaussianBlur stdDeviation="2"/>
<feComposite in2="hardAlpha" operator="out"/>
<feColorMatrix type="matrix" values="0 0 0 0 0 0 0 0 0 0 0 0 0 0 0 0 0 0 0.25 0"/>
<feBlend mode="normal" in2="BackgroundImageFix" result="effect1_dropShadow_509_116"/>
<feBlend mode="normal" in="SourceGraphic" in2="effect1_dropShadow_509_116" result="shape"/>
</filter>
<filter id="filter2_d_509_116" x="81.9779" y="8" width="186.5" height="178.5" filterUnits="userSpaceOnUse" color-interpolation-filters="sRGB">
<feFlood flood-opacity="0" result="BackgroundImageFix"/>
<feColorMatrix in="SourceAlpha" type="matrix" values="0 0 0 0 0 0 0 0 0 0 0 0 0 0 0 0 0 0 127 0" result="hardAlpha"/>
<feOffset dx="4" dy="4"/>
<feGaussianBlur stdDeviation="2"/>
<feComposite in2="hardAlpha" operator="out"/>
<feColorMatrix type="matrix" values="0 0 0 0 0 0 0 0 0 0 0 0 0 0 0 0 0 0 0.1 0"/>
<feBlend mode="normal" in2="BackgroundImageFix" result="effect1_dropShadow_509_116"/>
<feBlend mode="normal" in="SourceGraphic" in2="effect1_dropShadow_509_116" result="shape"/>
</filter>
<filter id="filter3_d_509_116" x="165.978" y="49" width="86" height="130" filterUnits="userSpaceOnUse" color-interpolation-filters="sRGB">
<feFlood flood-opacity="0" result="BackgroundImageFix"/>
<feColorMatrix in="SourceAlpha" type="matrix" values="0 0 0 0 0 0 0 0 0 0 0 0 0 0 0 0 0 0 127 0" result="hardAlpha"/>
<feOffset dy="4"/>
<feGaussianBlur stdDeviation="2"/>
<feComposite in2="hardAlpha" operator="out"/>
<feColorMatrix type="matrix" values="0 0 0 0 0 0 0 0 0 0 0 0 0 0 0 0 0 0 0.25 0"/>
<feBlend mode="normal" in2="BackgroundImageFix" result="effect1_dropShadow_509_116"/>
<feBlend mode="normal" in="SourceGraphic" in2="effect1_dropShadow_509_116" result="shape"/>
</filter>
<filter id="filter4_d_509_116" x="77.9779" y="8" width="186.5" height="178.5" filterUnits="userSpaceOnUse" color-interpolation-filters="sRGB">
<feFlood flood-opacity="0" result="BackgroundImageFix"/>
<feColorMatrix in="SourceAlpha" type="matrix" values="0 0 0 0 0 0 0 0 0 0 0 0 0 0 0 0 0 0 127 0" result="hardAlpha"/>
<feOffset dy="4"/>
<feGaussianBlur stdDeviation="2"/>
<feComposite in2="hardAlpha" operator="out"/>
<feColorMatrix type="matrix" values="0 0 0 0 0 0 0 0 0 0 0 0 0 0 0 0 0 0 0.25 0"/>
<feBlend mode="normal" in2="BackgroundImageFix" result="effect1_dropShadow_509_116"/>
<feBlend mode="normal" in="SourceGraphic" in2="effect1_dropShadow_509_116" result="shape"/>
</filter>
<filter id="filter5_d_509_116" x="96.9779" y="72" width="75.1764" height="102.506" filterUnits="userSpaceOnUse" color-interpolation-filters="sRGB">
<feFlood flood-opacity="0" result="BackgroundImageFix"/>
<feColorMatrix in="SourceAlpha" type="matrix" values="0 0 0 0 0 0 0 0 0 0 0 0 0 0 0 0 0 0 127 0" result="hardAlpha"/>
<feOffset dy="4"/>
<feGaussianBlur stdDeviation="2"/>
<feComposite in2="hardAlpha" operator="out"/>
<feColorMatrix type="matrix" values="0 0 0 0 0 0 0 0 0 0 0 0 0 0 0 0 0 0 0.25 0"/>
<feBlend mode="normal" in2="BackgroundImageFix" result="effect1_dropShadow_509_116"/>
<feBlend mode="normal" in="SourceGraphic" in2="effect1_dropShadow_509_116" result="shape"/>
</filter>
</defs>
</svg>
