<svg width="583" height="191" viewBox="0 0 583 191" fill="none" xmlns="http://www.w3.org/2000/svg">
<g filter="url(#filter0_d_530_92)">
<g filter="url(#filter1_d_530_92)">
<path d="M251.022 87V43.8H263.342L276.142 74.2533H276.355L289.102 43.8H301.369V87H292.355V56.4933H292.142L279.769 87H272.035L259.715 56.4933H259.502V87H251.022ZM343.26 87H311.74V43.8H343.26V51.6933H320.753V60.76H341.5V68.44H320.753V79.1067H343.26V87ZM351.77 87V43.8H368.783C373.476 43.8 377.53 44.6711 380.943 46.4133C384.356 48.1556 386.987 50.6444 388.836 53.88C390.685 57.1156 391.61 60.9556 391.61 65.4C391.61 69.8089 390.667 73.6311 388.783 76.8667C386.934 80.1022 384.303 82.6089 380.89 84.3867C377.476 86.1289 373.441 87 368.783 87H351.77ZM360.783 79.32H368.783C373.263 79.32 376.658 78.0578 378.97 75.5333C381.316 72.9733 382.49 69.5956 382.49 65.4C382.49 61.1689 381.316 57.7911 378.97 55.2667C376.658 52.7422 373.263 51.48 368.783 51.48H360.783V79.32ZM416.301 87H407.448V51.6933H393.421V43.8H430.328V51.6933H416.301V87ZM468.912 87H437.392V43.8H468.912V51.6933H446.405V60.76H467.152V68.44H446.405V79.1067H468.912V87ZM496.2 87.8C491.791 87.8 487.933 86.8933 484.626 85.08C481.355 83.2311 478.813 80.6356 477 77.2933C475.186 73.9156 474.28 69.9867 474.28 65.5067C474.28 60.9556 475.186 57.0089 477 53.6667C478.813 50.3244 481.355 47.7467 484.626 45.9333C487.933 44.0844 491.791 43.16 496.2 43.16C499.755 43.16 502.902 43.7822 505.64 45.0267C508.413 46.2356 510.671 47.9778 512.413 50.2533C514.191 52.5289 515.311 55.2489 515.773 58.4133H506.386C505.995 56.1022 504.893 54.3244 503.08 53.08C501.266 51.8 498.973 51.16 496.2 51.16C492.217 51.16 489.071 52.4222 486.76 54.9467C484.448 57.4711 483.293 60.9911 483.293 65.5067C483.293 69.9867 484.448 73.5067 486.76 76.0667C489.071 78.5911 492.217 79.8533 496.2 79.8533C498.973 79.8533 501.266 79.2133 503.08 77.9333C504.893 76.6533 505.995 74.8578 506.386 72.5467H515.773C515.311 75.7111 514.191 78.4489 512.413 80.76C510.671 83.0356 508.413 84.7778 505.64 85.9867C502.902 87.1956 499.755 87.8 496.2 87.8ZM522.327 87V43.8H531.34V60.6533H552.567V43.8H561.58V87H552.567V68.5467H531.34V87H522.327Z" fill="#035386"/>
<path d="M347.777 147H338.124L315.67 117.027H315.457V147H306.817V103.8H316.15L338.924 134.413H339.137V103.8H347.777V147ZM389.617 147H358.097V103.8H389.617V111.693H367.11V120.76H387.857V128.44H367.11V139.107H389.617V147ZM393.967 147L410.234 124.493L395.14 103.8H405.487L415.674 118.147H415.887L426.074 103.8H436.1L421.007 124.387L437.274 147H426.714L415.567 131.213H415.354L404.207 147H393.967ZM460.511 147.64C456.636 147.64 453.258 147.053 450.378 145.88C447.498 144.671 445.276 142.84 443.711 140.387C442.147 137.898 441.365 134.733 441.365 130.893V103.8H450.591V129.613C450.591 132.636 451.391 135 452.991 136.707C454.627 138.378 457.222 139.213 460.778 139.213C464.405 139.213 467 138.324 468.565 136.547C470.165 134.769 470.965 132.476 470.965 129.667V103.8H479.978V131C479.978 136.547 478.253 140.707 474.805 143.48C471.356 146.253 466.591 147.64 460.511 147.64ZM506.941 147.64C501.146 147.64 496.523 146.378 493.075 143.853C489.626 141.293 487.741 137.756 487.421 133.24H496.701C497.021 135.587 498.07 137.364 499.848 138.573C501.661 139.747 504.15 140.333 507.315 140.333C510.123 140.333 512.239 139.889 513.661 139C515.083 138.076 515.795 136.724 515.795 134.947C515.795 133.56 515.332 132.458 514.408 131.64C513.519 130.822 512.061 130.2 510.035 129.773L501.128 127.96C497.11 127.107 494.106 125.702 492.115 123.747C490.123 121.756 489.128 119.178 489.128 116.013C489.128 111.996 490.639 108.849 493.661 106.573C496.719 104.298 500.861 103.16 506.088 103.16C511.386 103.16 515.652 104.351 518.888 106.733C522.123 109.116 523.937 112.44 524.328 116.707H515.048C514.017 112.369 510.87 110.2 505.608 110.2C503.226 110.2 501.359 110.627 500.008 111.48C498.657 112.333 497.981 113.56 497.981 115.16C497.981 117.613 499.741 119.196 503.261 119.907L512.541 121.827C516.737 122.68 519.795 124.12 521.715 126.147C523.67 128.138 524.648 130.84 524.648 134.253C524.648 138.484 523.101 141.773 520.008 144.12C516.95 146.467 512.595 147.64 506.941 147.64Z" fill="#5CD0F3"/>
</g>
<g filter="url(#filter2_d_530_92)">
<circle cx="106" cy="60" r="7.5" stroke="#10507C" stroke-width="7"/>
<circle cx="130" cy="87" r="7.5" stroke="#10507C" stroke-width="7"/>
<circle cx="162" cy="87" r="7.5" stroke="#10507C" stroke-width="7"/>
<path d="M106 171V101.077V70" stroke="#0B5383" stroke-width="6"/>
<path d="M117 171V128.769V110" stroke="#0B5383" stroke-width="6"/>
<path d="M114 112H129.5V96" stroke="#0B5383" stroke-width="6"/>
<path d="M138.5 87.5H154" stroke="#0B5383" stroke-width="6"/>
</g>
<g filter="url(#filter3_d_530_92)">
<path d="M43.5 127C45.7091 127 47.5 125.209 47.5 123C47.5 120.791 45.7091 119 43.5 119V123V127ZM43.5 123V119C43.4908 119 43.4816 119 43.4723 119C43.463 119 43.4538 119 43.4444 119C43.4351 119 43.4257 119 43.4164 119C43.407 119 43.3975 119 43.3881 119C43.3786 119 43.3691 119 43.3596 119C43.3501 119 43.3406 119 43.331 119C43.3214 119 43.3118 119 43.3021 119C43.2925 119 43.2828 119 43.2731 119C43.2634 119 43.2537 119 43.2439 119C43.2341 119 43.2243 119 43.2145 119C43.2047 119 43.1948 119 43.1849 119C43.175 119 43.1651 119 43.1551 119C43.1451 119 43.1352 119 43.1251 119C43.1151 119 43.1051 119 43.095 119C43.0849 119 43.0748 119 43.0646 119C43.0545 119 43.0443 119 43.0341 119C43.0239 119 43.0137 119 43.0034 119C42.9931 119 42.9828 119 42.9725 119C42.9622 119 42.9518 119 42.9414 119C42.931 119 42.9206 119 42.9101 119C42.8997 119 42.8892 119 42.8787 119C42.8682 119 42.8576 119 42.8471 119C42.8365 119 42.8259 119 42.8152 119C42.8046 119 42.7939 119 42.7833 119C42.7726 119 42.7618 119 42.7511 119C42.7403 119 42.7295 119 42.7187 119C42.7079 119 42.6971 119 42.6862 119C42.6753 119 42.6644 119 42.6535 119C42.6425 119 42.6316 119 42.6206 119C42.6096 119 42.5986 119 42.5875 119C42.5765 119 42.5654 119 42.5543 119C42.5431 119 42.532 119 42.5208 119C42.5097 119 42.4985 119 42.4872 119C42.476 119 42.4647 119 42.4534 119C42.4422 119 42.4308 119 42.4195 119C42.4081 119 42.3968 119 42.3854 119C42.374 119 42.3625 119 42.3511 119C42.3396 119 42.3281 119 42.3166 119C42.3051 119 42.2935 119 42.2819 119C42.2704 119 42.2587 119 42.2471 119C42.2355 119 42.2238 119 42.2121 119C42.2004 119 42.1887 119 42.177 119C42.1652 119 42.1534 119 42.1416 119C42.1298 119 42.118 119 42.1061 119C42.0942 119 42.0823 119 42.0704 119C42.0585 119 42.0466 119 42.0346 119C42.0226 119 42.0106 119 41.9986 119C41.9865 119 41.9745 119 41.9624 119C41.9503 119 41.9382 119 41.926 119C41.9139 119 41.9017 119 41.8895 119C41.8773 119 41.8651 119 41.8528 119C41.8406 119 41.8283 119 41.816 119C41.8036 119 41.7913 119 41.7789 119C41.7666 119 41.7542 119 41.7418 119C41.7293 119 41.7169 119 41.7044 119C41.6919 119 41.6794 119 41.6669 119C41.6544 119 41.6418 119 41.6292 119C41.6166 119 41.604 119 41.5914 119C41.5787 119 41.5661 119 41.5534 119C41.5407 119 41.528 119 41.5152 119C41.5025 119 41.4897 119 41.4769 119C41.4641 119 41.4512 119 41.4384 119C41.4255 119 41.4127 119 41.3997 119C41.3868 119 41.3739 119 41.3609 119C41.348 119 41.335 119 41.322 119C41.309 119 41.2959 119 41.2828 119C41.2698 119 41.2567 119 41.2436 119C41.2304 119 41.2173 119 41.2041 119C41.1909 119 41.1777 119 41.1645 119C41.1513 119 41.138 119 41.1248 119C41.1115 119 41.0982 119 41.0849 119C41.0715 119 41.0582 119 41.0448 119C41.0314 119 41.018 119 41.0046 119C40.9911 119 40.9777 119 40.9642 119C40.9507 119 40.9372 119 40.9237 119C40.9101 119 40.8966 119 40.883 119C40.8694 119 40.8558 119 40.8421 119C40.8285 119 40.8148 119 40.8011 119C40.7875 119 40.7737 119 40.76 119C40.7463 119 40.7325 119 40.7187 119C40.7049 119 40.6911 119 40.6773 119C40.6634 119 40.6496 119 40.6357 119C40.6218 119 40.6079 119 40.5939 119C40.58 119 40.566 119 40.552 119C40.5381 119 40.524 119 40.51 119C40.496 119 40.4819 119 40.4678 119C40.4537 119 40.4396 119 40.4255 119C40.4113 119 40.3972 119 40.383 119C40.3688 119 40.3546 119 40.3404 119C40.3261 119 40.3119 119 40.2976 119C40.2833 119 40.269 119 40.2547 119C40.2403 119 40.226 119 40.2116 119C40.1972 119 40.1828 119 40.1684 119C40.154 119 40.1395 119 40.125 119C40.1106 119 40.0961 119 40.0815 119C40.067 119 40.0525 119 40.0379 119C40.0233 119 40.0087 119 39.9941 119C39.9795 119 39.9649 119 39.9502 119C39.9355 119 39.9209 119 39.9061 119C39.8914 119 39.8767 119 39.8619 119C39.8472 119 39.8324 119 39.8176 119C39.8028 119 39.788 119 39.7731 119C39.7583 119 39.7434 119 39.7285 119C39.7136 119 39.6987 119 39.6837 119C39.6688 119 39.6538 119 39.6388 119C39.6238 119 39.6088 119 39.5938 119C39.5788 119 39.5637 119 39.5486 119C39.5335 119 39.5184 119 39.5033 119C39.4882 119 39.473 119 39.4579 119C39.4427 119 39.4275 119 39.4123 119C39.3971 119 39.3818 119 39.3666 119C39.3513 119 39.336 119 39.3207 119C39.3054 119 39.2901 119 39.2747 119C39.2594 119 39.244 119 39.2286 119C39.2132 119 39.1978 119 39.1824 119C39.1669 119 39.1515 119 39.136 119C39.1205 119 39.105 119 39.0895 119C39.074 119 39.0584 119 39.0428 119C39.0273 119 39.0117 119 38.9961 119C38.9805 119 38.9648 119 38.9492 119C38.9335 119 38.9178 119 38.9021 119C38.8864 119 38.8707 119 38.855 119C38.8392 119 38.8235 119 38.8077 119C38.7919 119 38.7761 119 38.7603 119C38.7444 119 38.7286 119 38.7127 119C38.6969 119 38.681 119 38.6651 119C38.6491 119 38.6332 119 38.6173 119C38.6013 119 38.5853 119 38.5693 119C38.5533 119 38.5373 119 38.5213 119C38.5053 119 38.4892 119 38.4731 119C38.457 119 38.4409 119 38.4248 119C38.4087 119 38.3926 119 38.3764 119C38.3603 119 38.3441 119 38.3279 119C38.3117 119 38.2955 119 38.2792 119C38.263 119 38.2467 119 38.2304 119C38.2141 119 38.1978 119 38.1815 119C38.1652 119 38.1489 119 38.1325 119C38.1161 119 38.0998 119 38.0833 119C38.0669 119 38.0505 119 38.0341 119C38.0176 119 38.0012 119 37.9847 119C37.9682 119 37.9517 119 37.9352 119C37.9187 119 37.9021 119 37.8856 119C37.869 119 37.8524 119 37.8358 119C37.8192 119 37.8026 119 37.786 119C37.7693 119 37.7527 119 37.736 119C37.7193 119 37.7026 119 37.6859 119C37.6692 119 37.6525 119 37.6357 119C37.619 119 37.6022 119 37.5854 119C37.5686 119 37.5518 119 37.535 119C37.5181 119 37.5013 119 37.4844 119C37.4676 119 37.4507 119 37.4338 119C37.4169 119 37.3999 119 37.383 119C37.366 119 37.3491 119 37.3321 119C37.3151 119 37.2981 119 37.2811 119C37.2641 119 37.2471 119 37.23 119C37.213 119 37.1959 119 37.1788 119C37.1617 119 37.1446 119 37.1275 119C37.1103 119 37.0932 119 37.076 119C37.0589 119 37.0417 119 37.0245 119C37.0073 119 36.9901 119 36.9728 119C36.9556 119 36.9383 119 36.9211 119C36.9038 119 36.8865 119 36.8692 119C36.8519 119 36.8346 119 36.8172 119C36.7999 119 36.7825 119 36.7651 119C36.7478 119 36.7304 119 36.713 119C36.6955 119 36.6781 119 36.6607 119C36.6432 119 36.6258 119 36.6083 119C36.5908 119 36.5733 119 36.5558 119C36.5383 119 36.5207 119 36.5032 119C36.4856 119 36.468 119 36.4505 119C36.4329 119 36.4153 119 36.3977 119C36.38 119 36.3624 119 36.3447 119C36.3271 119 36.3094 119 36.2917 119C36.274 119 36.2563 119 36.2386 119C36.2209 119 36.2032 119 36.1854 119C36.1677 119 36.1499 119 36.1321 119C36.1143 119 36.0965 119 36.0787 119C36.0609 119 36.043 119 36.0252 119C36.0073 119 35.9894 119 35.9716 119C35.9537 119 35.9358 119 35.9179 119C35.8999 119 35.882 119 35.8641 119C35.8461 119 35.8281 119 35.8102 119C35.7922 119 35.7742 119 35.7562 119C35.7381 119 35.7201 119 35.7021 119C35.684 119 35.666 119 35.6479 119C35.6298 119 35.6117 119 35.5936 119C35.5755 119 35.5574 119 35.5392 119C35.5211 119 35.5029 119 35.4848 119C35.4666 119 35.4484 119 35.4302 119C35.412 119 35.3938 119 35.3755 119C35.3573 119 35.3391 119 35.3208 119C35.3025 119 35.2843 119 35.266 119C35.2477 119 35.2294 119 35.211 119C35.1927 119 35.1744 119 35.156 119C35.1377 119 35.1193 119 35.1009 119C35.0825 119 35.0641 119 35.0457 119C35.0273 119 35.0089 119 34.9904 119C34.972 119 34.9535 119 34.9351 119C34.9166 119 34.8981 119 34.8796 119C34.8611 119 34.8426 119 34.8241 119C34.8055 119 34.787 119 34.7684 119C34.7499 119 34.7313 119 34.7127 119C34.6941 119 34.6755 119 34.6569 119C34.6383 119 34.6197 119 34.601 119C34.5824 119 34.5637 119 34.5451 119C34.5264 119 34.5077 119 34.489 119C34.4703 119 34.4516 119 34.4329 119C34.4141 119 34.3954 119 34.3767 119C34.3579 119 34.3391 119 34.3204 119C34.3016 119 34.2828 119 34.264 119C34.2452 119 34.2263 119 34.2075 119C34.1887 119 34.1698 119 34.151 119C34.1321 119 34.1132 119 34.0943 119C34.0754 119 34.0565 119 34.0376 119C34.0187 119 33.9998 119 33.9808 119C33.9619 119 33.943 119 33.924 119C33.905 119 33.886 119 33.8671 119C33.8481 119 33.8291 119 33.81 119C33.791 119 33.772 119 33.7529 119C33.7339 119 33.7148 119 33.6958 119C33.6767 119 33.6576 119 33.6385 119C33.6194 119 33.6003 119 33.5812 119C33.5621 119 33.543 119 33.5238 119C33.5047 119 33.4855 119 33.4664 119C33.4472 119 33.428 119 33.4088 119C33.3896 119 33.3704 119 33.3512 119C33.332 119 33.3128 119 33.2935 119C33.2743 119 33.255 119 33.2358 119C33.2165 119 33.1972 119 33.1779 119C33.1586 119 33.1393 119 33.12 119C33.1007 119 33.0814 119 33.0621 119C33.0427 119 33.0234 119 33.004 119C32.9847 119 32.9653 119 32.9459 119C32.9265 119 32.9071 119 32.8877 119C32.8683 119 32.8489 119 32.8295 119C32.8101 119 32.7906 119 32.7712 119C32.7517 119 32.7323 119 32.7128 119C32.6933 119 32.6738 119 32.6543 119C32.6349 119 32.6153 119 32.5958 119C32.5763 119 32.5568 119 32.5373 119C32.5177 119 32.4982 119 32.4786 119C32.4591 119 32.4395 119 32.4199 119C32.4003 119 32.3807 119 32.3611 119C32.3415 119 32.3219 119 32.3023 119C32.2827 119 32.2631 119 32.2434 119C32.2238 119 32.2041 119 32.1845 119C32.1648 119 32.1451 119 32.1254 119C32.1057 119 32.0861 119 32.0664 119C32.0466 119 32.0269 119 32.0072 119C31.9875 119 31.9678 119 31.948 119C31.9283 119 31.9085 119 31.8887 119C31.869 119 31.8492 119 31.8294 119C31.8096 119 31.7899 119 31.7701 119C31.7502 119 31.7304 119 31.7106 119C31.6908 119 31.671 119 31.6511 119C31.6313 119 31.6114 119 31.5916 119C31.5717 119 31.5518 119 31.532 119C31.5121 119 31.4922 119 31.4723 119C31.4524 119 31.4325 119 31.4126 119C31.3927 119 31.3727 119 31.3528 119C31.3329 119 31.3129 119 31.293 119C31.273 119 31.2531 119 31.2331 119C31.2131 119 31.1932 119 31.1732 119C31.1532 119 31.1332 119 31.1132 119C31.0932 119 31.0732 119 31.0532 119C31.0331 119 31.0131 119 30.9931 119C30.973 119 30.953 119 30.9329 119C30.9129 119 30.8928 119 30.8727 119C30.8527 119 30.8326 119 30.8125 119C30.7924 119 30.7723 119 30.7522 119C30.7321 119 30.712 119 30.6919 119C30.6718 119 30.6516 119 30.6315 119C30.6114 119 30.5912 119 30.5711 119C30.5509 119 30.5308 119 30.5106 119C30.4904 119 30.4702 119 30.4501 119C30.4299 119 30.4097 119 30.3895 119C30.3693 119 30.3491 119 30.3289 119C30.3087 119 30.2884 119 30.2682 119C30.248 119 30.2277 119 30.2075 119C30.1873 119 30.167 119 30.1467 119C30.1265 119 30.1062 119 30.086 119C30.0657 119 30.0454 119 30.0251 119C30.0048 119 29.9845 119 29.9642 119C29.9439 119 29.9236 119 29.9033 119C29.883 119 29.8627 119 29.8424 119C29.822 119 29.8017 119 29.7814 119C29.761 119 29.7407 119 29.7203 119C29.7 119 29.6796 119 29.6592 119C29.6389 119 29.6185 119 29.5981 119C29.5777 119 29.5573 119 29.5369 119C29.5166 119 29.4962 119 29.4757 119C29.4553 119 29.4349 119 29.4145 119C29.3941 119 29.3737 119 29.3532 119C29.3328 119 29.3124 119 29.2919 119C29.2715 119 29.251 119 29.2306 119C29.2101 119 29.1897 119 29.1692 119C29.1487 119 29.1283 119 29.1078 119C29.0873 119 29.0668 119 29.0463 119C29.0259 119 29.0054 119 28.9849 119C28.9644 119 28.9439 119 28.9233 119C28.9028 119 28.8823 119 28.8618 119C28.8413 119 28.8207 119 28.8002 119C28.7797 119 28.7591 119 28.7386 119C28.7181 119 28.6975 119 28.677 119C28.6564 119 28.6359 119 28.6153 119C28.5947 119 28.5742 119 28.5536 119C28.533 119 28.5124 119 28.4919 119C28.4713 119 28.4507 119 28.4301 119C28.4095 119 28.3889 119 28.3683 119C28.3477 119 28.3271 119 28.3065 119C28.2859 119 28.2653 119 28.2446 119C28.224 119 28.2034 119 28.1828 119C28.1621 119 28.1415 119 28.1209 119C28.1002 119 28.0796 119 28.059 119C28.0383 119 28.0177 119 27.997 119C27.9763 119 27.9557 119 27.935 119C27.9144 119 27.8937 119 27.873 119C27.8524 119 27.8317 119 27.811 119C27.7903 119 27.7697 119 27.749 119C27.7283 119 27.7076 119 27.6869 119C27.6662 119 27.6455 119 27.6248 119C27.6041 119 27.5834 119 27.5627 119C27.542 119 27.5213 119 27.5006 119C27.4799 119 27.4592 119 27.4384 119C27.4177 119 27.397 119 27.3763 119C27.3555 119 27.3348 119 27.3141 119C27.2933 119 27.2726 119 27.2519 119C27.2311 119 27.2104 119 27.1896 119C27.1689 119 27.1481 119 27.1274 119C27.1066 119 27.0859 119 27.0651 119C27.0444 119 27.0236 119 27.0029 119C26.9821 119 26.9613 119 26.9406 119C26.9198 119 26.899 119 26.8783 119C26.8575 119 26.8367 119 26.8159 119C26.7952 119 26.7744 119 26.7536 119C26.7328 119 26.712 119 26.6913 119C26.6705 119 26.6497 119 26.6289 119C26.6081 119 26.5873 119 26.5665 119C26.5457 119 26.5249 119 26.5041 119C26.4833 119 26.4625 119 26.4417 119C26.4209 119 26.4001 119 26.3793 119C26.3585 119 26.3377 119 26.3169 119C26.2961 119 26.2753 119 26.2545 119C26.2336 119 26.2128 119 26.192 119C26.1712 119 26.1504 119 26.1296 119C26.1087 119 26.0879 119 26.0671 119C26.0463 119 26.0255 119 26.0046 119C25.9838 119 25.963 119 25.9422 119C25.9213 119 25.9005 119 25.8797 119C25.8589 119 25.838 119 25.8172 119C25.7964 119 25.7755 119 25.7547 119C25.7339 119 25.713 119 25.6922 119C25.6714 119 25.6505 119 25.6297 119C25.6089 119 25.588 119 25.5672 119C25.5464 119 25.5255 119 25.5047 119C25.4838 119 25.463 119 25.4422 119C25.4213 119 25.4005 119 25.3797 119C25.3588 119 25.338 119 25.3171 119C25.2963 119 25.2755 119 25.2546 119C25.2338 119 25.2129 119 25.1921 119C25.1713 119 25.1504 119 25.1296 119C25.1087 119 25.0879 119 25.0671 119C25.0462 119 25.0254 119 25.0045 119C24.9837 119 24.9629 119 24.942 119C24.9212 119 24.9003 119 24.8795 119C24.8587 119 24.8378 119 24.817 119C24.7961 119 24.7753 119 24.7545 119C24.7336 119 24.7128 119 24.692 119C24.6711 119 24.6503 119 24.6295 119C24.6086 119 24.5878 119 24.567 119C24.5461 119 24.5253 119 24.5045 119C24.4836 119 24.4628 119 24.442 119C24.4211 119 24.4003 119 24.3795 119C24.3587 119 24.3378 119 24.317 119C24.2962 119 24.2754 119 24.2545 119C24.2337 119 24.2129 119 24.1921 119C24.1713 119 24.1504 119 24.1296 119C24.1088 119 24.088 119 24.0672 119C24.0464 119 24.0256 119 24.0047 119C23.9839 119 23.9631 119 23.9423 119C23.9215 119 23.9007 119 23.8799 119C23.8591 119 23.8383 119 23.8175 119C23.7967 119 23.7759 119 23.7551 119C23.7343 119 23.7135 119 23.6927 119C23.6719 119 23.6511 119 23.6304 119C23.6096 119 23.5888 119 23.568 119C23.5472 119 23.5264 119 23.5057 119C23.4849 119 23.4641 119 23.4433 119C23.4226 119 23.4018 119 23.381 119C23.3602 119 23.3395 119 23.3187 119C23.298 119 23.2772 119 23.2564 119C23.2357 119 23.2149 119 23.1942 119C23.1734 119 23.1527 119 23.1319 119C23.1112 119 23.0904 119 23.0697 119C23.0489 119 23.0282 119 23.0075 119C22.9867 119 22.966 119 22.9453 119C22.9245 119 22.9038 119 22.8831 119C22.8624 119 22.8417 119 22.8209 119C22.8002 119 22.7795 119 22.7588 119C22.7381 119 22.7174 119 22.6967 119C22.676 119 22.6553 119 22.6346 119C22.6139 119 22.5932 119 22.5725 119C22.5518 119 22.5311 119 22.5105 119C22.4898 119 22.4691 119 22.4484 119C22.4278 119 22.4071 119 22.3864 119C22.3658 119 22.3451 119 22.3244 119C22.3038 119 22.2831 119 22.2625 119C22.2418 119 22.2212 119 22.2006 119C22.1799 119 22.1593 119 22.1386 119C22.118 119 22.0974 119 22.0768 119C22.0561 119 22.0355 119 22.0149 119C21.9943 119 21.9737 119 21.9531 119C21.9325 119 21.9119 119 21.8913 119C21.8707 119 21.8501 119 21.8295 119C21.8089 119 21.7883 119 21.7678 119C21.7472 119 21.7266 119 21.706 119C21.6855 119 21.6649 119 21.6444 119C21.6238 119 21.6033 119 21.5827 119C21.5622 119 21.5416 119 21.5211 119C21.5005 119 21.48 119 21.4595 119C21.439 119 21.4184 119 21.3979 119C21.3774 119 21.3569 119 21.3364 119C21.3159 119 21.2954 119 21.2749 119C21.2544 119 21.2339 119 21.2134 119C21.193 119 21.1725 119 21.152 119C21.1315 119 21.1111 119 21.0906 119C21.0702 119 21.0497 119 21.0293 119C21.0088 119 20.9884 119 20.9679 119C20.9475 119 20.9271 119 20.9067 119C20.8862 119 20.8658 119 20.8454 119C20.825 119 20.8046 119 20.7842 119C20.7638 119 20.7434 119 20.723 119C20.7026 119 20.6822 119 20.6619 119C20.6415 119 20.6211 119 20.6008 119C20.5804 119 20.5601 119 20.5397 119C20.5194 119 20.499 119 20.4787 119C20.4584 119 20.438 119 20.4177 119C20.3974 119 20.3771 119 20.3568 119C20.3365 119 20.3162 119 20.2959 119C20.2756 119 20.2553 119 20.235 119C20.2148 119 20.1945 119 20.1742 119C20.154 119 20.1337 119 20.1135 119C20.0932 119 20.073 119 20.0527 119C20.0325 119 20.0123 119 19.992 119C19.9718 119 19.9516 119 19.9314 119C19.9112 119 19.891 119 19.8708 119C19.8506 119 19.8304 119 19.8103 119C19.7901 119 19.7699 119 19.7498 119C19.7296 119 19.7095 119 19.6893 119C19.6692 119 19.649 119 19.6289 119C19.6088 119 19.5887 119 19.5686 119C19.5485 119 19.5284 119 19.5083 119C19.4882 119 19.4681 119 19.448 119C19.4279 119 19.4079 119 19.3878 119C19.3677 119 19.3477 119 19.3276 119C19.3076 119 19.2875 119 19.2675 119C19.2475 119 19.2275 119 19.2075 119C19.1875 119 19.1675 119 19.1475 119C19.1275 119 19.1075 119 19.0875 119C19.0675 119 19.0476 119 19.0276 119C19.0076 119 18.9877 119 18.9678 119C18.9478 119 18.9279 119 18.908 119C18.888 119 18.8681 119 18.8482 119C18.8283 119 18.8084 119 18.7885 119C18.7687 119 18.7488 119 18.7289 119C18.709 119 18.6892 119 18.6693 119C18.6495 119 18.6297 119 18.6098 119C18.59 119 18.5702 119 18.5504 119C18.5306 119 18.5108 119 18.491 119C18.4712 119 18.4514 119 18.4316 119C18.4118 119 18.3921 119 18.3723 119C18.3526 119 18.3328 119 18.3131 119C18.2934 119 18.2737 119 18.2539 119C18.2342 119 18.2145 119 18.1948 119C18.1751 119 18.1555 119 18.1358 119C18.1161 119 18.0965 119 18.0768 119C18.0572 119 18.0375 119 18.0179 119C17.9983 119 17.9786 119 17.959 119C17.9394 119 17.9198 119 17.9002 119C17.8806 119 17.8611 119 17.8415 119C17.8219 119 17.8024 119 17.7828 119C17.7633 119 17.7438 119 17.7242 119C17.7047 119 17.6852 119 17.6657 119C17.6462 119 17.6267 119 17.6072 119C17.5877 119 17.5683 119 17.5488 119C17.5294 119 17.5099 119 17.4905 119C17.471 119 17.4516 119 17.4322 119C17.4128 119 17.3934 119 17.374 119C17.3546 119 17.3352 119 17.3159 119C17.2965 119 17.2771 119 17.2578 119C17.2384 119 17.2191 119 17.1998 119C17.1805 119 17.1612 119 17.1419 119C17.1226 119 17.1033 119 17.084 119C17.0647 119 17.0455 119 17.0262 119C17.007 119 16.9877 119 16.9685 119C16.9493 119 16.9301 119 16.9109 119C16.8917 119 16.8725 119 16.8533 119C16.8341 119 16.8149 119 16.7958 119C16.7766 119 16.7575 119 16.7384 119C16.7192 119 16.7001 119 16.681 119C16.6619 119 16.6428 119 16.6237 119C16.6047 119 16.5856 119 16.5665 119C16.5475 119 16.5285 119 16.5094 119C16.4904 119 16.4714 119 16.4524 119C16.4334 119 16.4144 119 16.3954 119C16.3764 119 16.3575 119 16.3385 119C16.3196 119 16.3006 119 16.2817 119C16.2628 119 16.2439 119 16.225 119C16.2061 119 16.1872 119 16.1683 119C16.1494 119 16.1306 119 16.1117 119C16.0929 119 16.0741 119 16.0552 119C16.0364 119 16.0176 119 15.9988 119V123V127C16.0176 127 16.0364 127 16.0552 127C16.0741 127 16.0929 127 16.1117 127C16.1306 127 16.1494 127 16.1683 127C16.1872 127 16.2061 127 16.225 127C16.2439 127 16.2628 127 16.2817 127C16.3006 127 16.3196 127 16.3385 127C16.3575 127 16.3764 127 16.3954 127C16.4144 127 16.4334 127 16.4524 127C16.4714 127 16.4904 127 16.5094 127C16.5285 127 16.5475 127 16.5665 127C16.5856 127 16.6047 127 16.6237 127C16.6428 127 16.6619 127 16.681 127C16.7001 127 16.7192 127 16.7384 127C16.7575 127 16.7766 127 16.7958 127C16.8149 127 16.8341 127 16.8533 127C16.8725 127 16.8917 127 16.9109 127C16.9301 127 16.9493 127 16.9685 127C16.9877 127 17.007 127 17.0262 127C17.0455 127 17.0647 127 17.084 127C17.1033 127 17.1226 127 17.1419 127C17.1612 127 17.1805 127 17.1998 127C17.2191 127 17.2384 127 17.2578 127C17.2771 127 17.2965 127 17.3159 127C17.3352 127 17.3546 127 17.374 127C17.3934 127 17.4128 127 17.4322 127C17.4516 127 17.471 127 17.4905 127C17.5099 127 17.5294 127 17.5488 127C17.5683 127 17.5877 127 17.6072 127C17.6267 127 17.6462 127 17.6657 127C17.6852 127 17.7047 127 17.7242 127C17.7438 127 17.7633 127 17.7828 127C17.8024 127 17.8219 127 17.8415 127C17.8611 127 17.8806 127 17.9002 127C17.9198 127 17.9394 127 17.959 127C17.9786 127 17.9983 127 18.0179 127C18.0375 127 18.0572 127 18.0768 127C18.0965 127 18.1161 127 18.1358 127C18.1555 127 18.1751 127 18.1948 127C18.2145 127 18.2342 127 18.2539 127C18.2737 127 18.2934 127 18.3131 127C18.3328 127 18.3526 127 18.3723 127C18.3921 127 18.4118 127 18.4316 127C18.4514 127 18.4712 127 18.491 127C18.5108 127 18.5306 127 18.5504 127C18.5702 127 18.59 127 18.6098 127C18.6297 127 18.6495 127 18.6693 127C18.6892 127 18.709 127 18.7289 127C18.7488 127 18.7687 127 18.7885 127C18.8084 127 18.8283 127 18.8482 127C18.8681 127 18.888 127 18.908 127C18.9279 127 18.9478 127 18.9678 127C18.9877 127 19.0076 127 19.0276 127C19.0476 127 19.0675 127 19.0875 127C19.1075 127 19.1275 127 19.1475 127C19.1675 127 19.1875 127 19.2075 127C19.2275 127 19.2475 127 19.2675 127C19.2875 127 19.3076 127 19.3276 127C19.3477 127 19.3677 127 19.3878 127C19.4079 127 19.4279 127 19.448 127C19.4681 127 19.4882 127 19.5083 127C19.5284 127 19.5485 127 19.5686 127C19.5887 127 19.6088 127 19.6289 127C19.649 127 19.6692 127 19.6893 127C19.7095 127 19.7296 127 19.7498 127C19.7699 127 19.7901 127 19.8103 127C19.8304 127 19.8506 127 19.8708 127C19.891 127 19.9112 127 19.9314 127C19.9516 127 19.9718 127 19.992 127C20.0123 127 20.0325 127 20.0527 127C20.073 127 20.0932 127 20.1135 127C20.1337 127 20.154 127 20.1742 127C20.1945 127 20.2148 127 20.235 127C20.2553 127 20.2756 127 20.2959 127C20.3162 127 20.3365 127 20.3568 127C20.3771 127 20.3974 127 20.4177 127C20.438 127 20.4584 127 20.4787 127C20.499 127 20.5194 127 20.5397 127C20.5601 127 20.5804 127 20.6008 127C20.6211 127 20.6415 127 20.6619 127C20.6822 127 20.7026 127 20.723 127C20.7434 127 20.7638 127 20.7842 127C20.8046 127 20.825 127 20.8454 127C20.8658 127 20.8862 127 20.9067 127C20.9271 127 20.9475 127 20.9679 127C20.9884 127 21.0088 127 21.0293 127C21.0497 127 21.0702 127 21.0906 127C21.1111 127 21.1315 127 21.152 127C21.1725 127 21.193 127 21.2134 127C21.2339 127 21.2544 127 21.2749 127C21.2954 127 21.3159 127 21.3364 127C21.3569 127 21.3774 127 21.3979 127C21.4184 127 21.439 127 21.4595 127C21.48 127 21.5005 127 21.5211 127C21.5416 127 21.5622 127 21.5827 127C21.6033 127 21.6238 127 21.6444 127C21.6649 127 21.6855 127 21.706 127C21.7266 127 21.7472 127 21.7678 127C21.7883 127 21.8089 127 21.8295 127C21.8501 127 21.8707 127 21.8913 127C21.9119 127 21.9325 127 21.9531 127C21.9737 127 21.9943 127 22.0149 127C22.0355 127 22.0561 127 22.0768 127C22.0974 127 22.118 127 22.1386 127C22.1593 127 22.1799 127 22.2006 127C22.2212 127 22.2418 127 22.2625 127C22.2831 127 22.3038 127 22.3244 127C22.3451 127 22.3658 127 22.3864 127C22.4071 127 22.4278 127 22.4484 127C22.4691 127 22.4898 127 22.5105 127C22.5311 127 22.5518 127 22.5725 127C22.5932 127 22.6139 127 22.6346 127C22.6553 127 22.676 127 22.6967 127C22.7174 127 22.7381 127 22.7588 127C22.7795 127 22.8002 127 22.8209 127C22.8417 127 22.8624 127 22.8831 127C22.9038 127 22.9245 127 22.9453 127C22.966 127 22.9867 127 23.0075 127C23.0282 127 23.0489 127 23.0697 127C23.0904 127 23.1112 127 23.1319 127C23.1527 127 23.1734 127 23.1942 127C23.2149 127 23.2357 127 23.2564 127C23.2772 127 23.298 127 23.3187 127C23.3395 127 23.3602 127 23.381 127C23.4018 127 23.4226 127 23.4433 127C23.4641 127 23.4849 127 23.5057 127C23.5264 127 23.5472 127 23.568 127C23.5888 127 23.6096 127 23.6304 127C23.6511 127 23.6719 127 23.6927 127C23.7135 127 23.7343 127 23.7551 127C23.7759 127 23.7967 127 23.8175 127C23.8383 127 23.8591 127 23.8799 127C23.9007 127 23.9215 127 23.9423 127C23.9631 127 23.9839 127 24.0047 127C24.0256 127 24.0464 127 24.0672 127C24.088 127 24.1088 127 24.1296 127C24.1504 127 24.1713 127 24.1921 127C24.2129 127 24.2337 127 24.2545 127C24.2754 127 24.2962 127 24.317 127C24.3378 127 24.3587 127 24.3795 127C24.4003 127 24.4211 127 24.442 127C24.4628 127 24.4836 127 24.5045 127C24.5253 127 24.5461 127 24.567 127C24.5878 127 24.6086 127 24.6295 127C24.6503 127 24.6711 127 24.692 127C24.7128 127 24.7336 127 24.7545 127C24.7753 127 24.7961 127 24.817 127C24.8378 127 24.8587 127 24.8795 127C24.9003 127 24.9212 127 24.942 127C24.9629 127 24.9837 127 25.0045 127C25.0254 127 25.0462 127 25.0671 127C25.0879 127 25.1087 127 25.1296 127C25.1504 127 25.1713 127 25.1921 127C25.2129 127 25.2338 127 25.2546 127C25.2755 127 25.2963 127 25.3171 127C25.338 127 25.3588 127 25.3797 127C25.4005 127 25.4213 127 25.4422 127C25.463 127 25.4838 127 25.5047 127C25.5255 127 25.5464 127 25.5672 127C25.588 127 25.6089 127 25.6297 127C25.6505 127 25.6714 127 25.6922 127C25.713 127 25.7339 127 25.7547 127C25.7755 127 25.7964 127 25.8172 127C25.838 127 25.8589 127 25.8797 127C25.9005 127 25.9213 127 25.9422 127C25.963 127 25.9838 127 26.0046 127C26.0255 127 26.0463 127 26.0671 127C26.0879 127 26.1087 127 26.1296 127C26.1504 127 26.1712 127 26.192 127C26.2128 127 26.2336 127 26.2545 127C26.2753 127 26.2961 127 26.3169 127C26.3377 127 26.3585 127 26.3793 127C26.4001 127 26.4209 127 26.4417 127C26.4625 127 26.4833 127 26.5041 127C26.5249 127 26.5457 127 26.5665 127C26.5873 127 26.6081 127 26.6289 127C26.6497 127 26.6705 127 26.6913 127C26.712 127 26.7328 127 26.7536 127C26.7744 127 26.7952 127 26.8159 127C26.8367 127 26.8575 127 26.8783 127C26.899 127 26.9198 127 26.9406 127C26.9613 127 26.9821 127 27.0029 127C27.0236 127 27.0444 127 27.0651 127C27.0859 127 27.1066 127 27.1274 127C27.1481 127 27.1689 127 27.1896 127C27.2104 127 27.2311 127 27.2519 127C27.2726 127 27.2933 127 27.3141 127C27.3348 127 27.3555 127 27.3763 127C27.397 127 27.4177 127 27.4384 127C27.4592 127 27.4799 127 27.5006 127C27.5213 127 27.542 127 27.5627 127C27.5834 127 27.6041 127 27.6248 127C27.6455 127 27.6662 127 27.6869 127C27.7076 127 27.7283 127 27.749 127C27.7697 127 27.7903 127 27.811 127C27.8317 127 27.8524 127 27.873 127C27.8937 127 27.9144 127 27.935 127C27.9557 127 27.9763 127 27.997 127C28.0177 127 28.0383 127 28.059 127C28.0796 127 28.1002 127 28.1209 127C28.1415 127 28.1621 127 28.1828 127C28.2034 127 28.224 127 28.2446 127C28.2653 127 28.2859 127 28.3065 127C28.3271 127 28.3477 127 28.3683 127C28.3889 127 28.4095 127 28.4301 127C28.4507 127 28.4713 127 28.4919 127C28.5124 127 28.533 127 28.5536 127C28.5742 127 28.5947 127 28.6153 127C28.6359 127 28.6564 127 28.677 127C28.6975 127 28.7181 127 28.7386 127C28.7591 127 28.7797 127 28.8002 127C28.8207 127 28.8413 127 28.8618 127C28.8823 127 28.9028 127 28.9233 127C28.9439 127 28.9644 127 28.9849 127C29.0054 127 29.0259 127 29.0463 127C29.0668 127 29.0873 127 29.1078 127C29.1283 127 29.1487 127 29.1692 127C29.1897 127 29.2101 127 29.2306 127C29.251 127 29.2715 127 29.2919 127C29.3124 127 29.3328 127 29.3532 127C29.3737 127 29.3941 127 29.4145 127C29.4349 127 29.4553 127 29.4757 127C29.4962 127 29.5166 127 29.5369 127C29.5573 127 29.5777 127 29.5981 127C29.6185 127 29.6389 127 29.6592 127C29.6796 127 29.7 127 29.7203 127C29.7407 127 29.761 127 29.7814 127C29.8017 127 29.822 127 29.8424 127C29.8627 127 29.883 127 29.9033 127C29.9236 127 29.9439 127 29.9642 127C29.9845 127 30.0048 127 30.0251 127C30.0454 127 30.0657 127 30.086 127C30.1062 127 30.1265 127 30.1467 127C30.167 127 30.1873 127 30.2075 127C30.2277 127 30.248 127 30.2682 127C30.2884 127 30.3087 127 30.3289 127C30.3491 127 30.3693 127 30.3895 127C30.4097 127 30.4299 127 30.4501 127C30.4702 127 30.4904 127 30.5106 127C30.5308 127 30.5509 127 30.5711 127C30.5912 127 30.6114 127 30.6315 127C30.6516 127 30.6718 127 30.6919 127C30.712 127 30.7321 127 30.7522 127C30.7723 127 30.7924 127 30.8125 127C30.8326 127 30.8527 127 30.8727 127C30.8928 127 30.9129 127 30.9329 127C30.953 127 30.973 127 30.9931 127C31.0131 127 31.0331 127 31.0532 127C31.0732 127 31.0932 127 31.1132 127C31.1332 127 31.1532 127 31.1732 127C31.1932 127 31.2131 127 31.2331 127C31.2531 127 31.273 127 31.293 127C31.3129 127 31.3329 127 31.3528 127C31.3727 127 31.3927 127 31.4126 127C31.4325 127 31.4524 127 31.4723 127C31.4922 127 31.5121 127 31.532 127C31.5518 127 31.5717 127 31.5916 127C31.6114 127 31.6313 127 31.6511 127C31.671 127 31.6908 127 31.7106 127C31.7304 127 31.7502 127 31.7701 127C31.7899 127 31.8096 127 31.8294 127C31.8492 127 31.869 127 31.8887 127C31.9085 127 31.9283 127 31.948 127C31.9678 127 31.9875 127 32.0072 127C32.0269 127 32.0466 127 32.0664 127C32.0861 127 32.1057 127 32.1254 127C32.1451 127 32.1648 127 32.1845 127C32.2041 127 32.2238 127 32.2434 127C32.2631 127 32.2827 127 32.3023 127C32.3219 127 32.3415 127 32.3611 127C32.3807 127 32.4003 127 32.4199 127C32.4395 127 32.4591 127 32.4786 127C32.4982 127 32.5177 127 32.5373 127C32.5568 127 32.5763 127 32.5958 127C32.6153 127 32.6349 127 32.6543 127C32.6738 127 32.6933 127 32.7128 127C32.7323 127 32.7517 127 32.7712 127C32.7906 127 32.8101 127 32.8295 127C32.8489 127 32.8683 127 32.8877 127C32.9071 127 32.9265 127 32.9459 127C32.9653 127 32.9847 127 33.004 127C33.0234 127 33.0427 127 33.0621 127C33.0814 127 33.1007 127 33.12 127C33.1393 127 33.1586 127 33.1779 127C33.1972 127 33.2165 127 33.2358 127C33.255 127 33.2743 127 33.2935 127C33.3128 127 33.332 127 33.3512 127C33.3704 127 33.3896 127 33.4088 127C33.428 127 33.4472 127 33.4664 127C33.4855 127 33.5047 127 33.5238 127C33.543 127 33.5621 127 33.5812 127C33.6003 127 33.6194 127 33.6385 127C33.6576 127 33.6767 127 33.6958 127C33.7148 127 33.7339 127 33.7529 127C33.772 127 33.791 127 33.81 127C33.8291 127 33.8481 127 33.8671 127C33.886 127 33.905 127 33.924 127C33.943 127 33.9619 127 33.9808 127C33.9998 127 34.0187 127 34.0376 127C34.0565 127 34.0754 127 34.0943 127C34.1132 127 34.1321 127 34.151 127C34.1698 127 34.1887 127 34.2075 127C34.2263 127 34.2452 127 34.264 127C34.2828 127 34.3016 127 34.3204 127C34.3391 127 34.3579 127 34.3767 127C34.3954 127 34.4141 127 34.4329 127C34.4516 127 34.4703 127 34.489 127C34.5077 127 34.5264 127 34.5451 127C34.5637 127 34.5824 127 34.601 127C34.6197 127 34.6383 127 34.6569 127C34.6755 127 34.6941 127 34.7127 127C34.7313 127 34.7499 127 34.7684 127C34.787 127 34.8055 127 34.8241 127C34.8426 127 34.8611 127 34.8796 127C34.8981 127 34.9166 127 34.9351 127C34.9535 127 34.972 127 34.9904 127C35.0089 127 35.0273 127 35.0457 127C35.0641 127 35.0825 127 35.1009 127C35.1193 127 35.1377 127 35.156 127C35.1744 127 35.1927 127 35.211 127C35.2294 127 35.2477 127 35.266 127C35.2843 127 35.3025 127 35.3208 127C35.3391 127 35.3573 127 35.3755 127C35.3938 127 35.412 127 35.4302 127C35.4484 127 35.4666 127 35.4848 127C35.5029 127 35.5211 127 35.5392 127C35.5574 127 35.5755 127 35.5936 127C35.6117 127 35.6298 127 35.6479 127C35.666 127 35.684 127 35.7021 127C35.7201 127 35.7381 127 35.7562 127C35.7742 127 35.7922 127 35.8102 127C35.8281 127 35.8461 127 35.8641 127C35.882 127 35.8999 127 35.9179 127C35.9358 127 35.9537 127 35.9716 127C35.9894 127 36.0073 127 36.0252 127C36.043 127 36.0609 127 36.0787 127C36.0965 127 36.1143 127 36.1321 127C36.1499 127 36.1677 127 36.1854 127C36.2032 127 36.2209 127 36.2386 127C36.2563 127 36.274 127 36.2917 127C36.3094 127 36.3271 127 36.3447 127C36.3624 127 36.38 127 36.3977 127C36.4153 127 36.4329 127 36.4505 127C36.468 127 36.4856 127 36.5032 127C36.5207 127 36.5383 127 36.5558 127C36.5733 127 36.5908 127 36.6083 127C36.6258 127 36.6432 127 36.6607 127C36.6781 127 36.6955 127 36.713 127C36.7304 127 36.7478 127 36.7651 127C36.7825 127 36.7999 127 36.8172 127C36.8346 127 36.8519 127 36.8692 127C36.8865 127 36.9038 127 36.9211 127C36.9383 127 36.9556 127 36.9728 127C36.9901 127 37.0073 127 37.0245 127C37.0417 127 37.0589 127 37.076 127C37.0932 127 37.1103 127 37.1275 127C37.1446 127 37.1617 127 37.1788 127C37.1959 127 37.213 127 37.23 127C37.2471 127 37.2641 127 37.2811 127C37.2981 127 37.3151 127 37.3321 127C37.3491 127 37.366 127 37.383 127C37.3999 127 37.4169 127 37.4338 127C37.4507 127 37.4676 127 37.4844 127C37.5013 127 37.5181 127 37.535 127C37.5518 127 37.5686 127 37.5854 127C37.6022 127 37.619 127 37.6357 127C37.6525 127 37.6692 127 37.6859 127C37.7026 127 37.7193 127 37.736 127C37.7527 127 37.7693 127 37.786 127C37.8026 127 37.8192 127 37.8358 127C37.8524 127 37.869 127 37.8856 127C37.9021 127 37.9187 127 37.9352 127C37.9517 127 37.9682 127 37.9847 127C38.0012 127 38.0176 127 38.0341 127C38.0505 127 38.0669 127 38.0833 127C38.0998 127 38.1161 127 38.1325 127C38.1489 127 38.1652 127 38.1815 127C38.1978 127 38.2141 127 38.2304 127C38.2467 127 38.263 127 38.2792 127C38.2955 127 38.3117 127 38.3279 127C38.3441 127 38.3603 127 38.3764 127C38.3926 127 38.4087 127 38.4248 127C38.4409 127 38.457 127 38.4731 127C38.4892 127 38.5053 127 38.5213 127C38.5373 127 38.5533 127 38.5693 127C38.5853 127 38.6013 127 38.6173 127C38.6332 127 38.6491 127 38.6651 127C38.681 127 38.6969 127 38.7127 127C38.7286 127 38.7444 127 38.7603 127C38.7761 127 38.7919 127 38.8077 127C38.8235 127 38.8392 127 38.855 127C38.8707 127 38.8864 127 38.9021 127C38.9178 127 38.9335 127 38.9492 127C38.9648 127 38.9805 127 38.9961 127C39.0117 127 39.0273 127 39.0428 127C39.0584 127 39.074 127 39.0895 127C39.105 127 39.1205 127 39.136 127C39.1515 127 39.1669 127 39.1824 127C39.1978 127 39.2132 127 39.2286 127C39.244 127 39.2594 127 39.2747 127C39.2901 127 39.3054 127 39.3207 127C39.336 127 39.3513 127 39.3666 127C39.3818 127 39.3971 127 39.4123 127C39.4275 127 39.4427 127 39.4579 127C39.473 127 39.4882 127 39.5033 127C39.5184 127 39.5335 127 39.5486 127C39.5637 127 39.5788 127 39.5938 127C39.6088 127 39.6238 127 39.6388 127C39.6538 127 39.6688 127 39.6837 127C39.6987 127 39.7136 127 39.7285 127C39.7434 127 39.7583 127 39.7731 127C39.788 127 39.8028 127 39.8176 127C39.8324 127 39.8472 127 39.8619 127C39.8767 127 39.8914 127 39.9061 127C39.9209 127 39.9355 127 39.9502 127C39.9649 127 39.9795 127 39.9941 127C40.0087 127 40.0233 127 40.0379 127C40.0525 127 40.067 127 40.0815 127C40.0961 127 40.1106 127 40.125 127C40.1395 127 40.154 127 40.1684 127C40.1828 127 40.1972 127 40.2116 127C40.226 127 40.2403 127 40.2547 127C40.269 127 40.2833 127 40.2976 127C40.3119 127 40.3261 127 40.3404 127C40.3546 127 40.3688 127 40.383 127C40.3972 127 40.4113 127 40.4255 127C40.4396 127 40.4537 127 40.4678 127C40.4819 127 40.496 127 40.51 127C40.524 127 40.5381 127 40.552 127C40.566 127 40.58 127 40.5939 127C40.6079 127 40.6218 127 40.6357 127C40.6496 127 40.6634 127 40.6773 127C40.6911 127 40.7049 127 40.7187 127C40.7325 127 40.7463 127 40.76 127C40.7737 127 40.7875 127 40.8011 127C40.8148 127 40.8285 127 40.8421 127C40.8558 127 40.8694 127 40.883 127C40.8966 127 40.9101 127 40.9237 127C40.9372 127 40.9507 127 40.9642 127C40.9777 127 40.9911 127 41.0046 127C41.018 127 41.0314 127 41.0448 127C41.0582 127 41.0715 127 41.0849 127C41.0982 127 41.1115 127 41.1248 127C41.138 127 41.1513 127 41.1645 127C41.1777 127 41.1909 127 41.2041 127C41.2173 127 41.2304 127 41.2436 127C41.2567 127 41.2698 127 41.2828 127C41.2959 127 41.309 127 41.322 127C41.335 127 41.348 127 41.3609 127C41.3739 127 41.3868 127 41.3997 127C41.4127 127 41.4255 127 41.4384 127C41.4512 127 41.4641 127 41.4769 127C41.4897 127 41.5025 127 41.5152 127C41.528 127 41.5407 127 41.5534 127C41.5661 127 41.5787 127 41.5914 127C41.604 127 41.6166 127 41.6292 127C41.6418 127 41.6544 127 41.6669 127C41.6794 127 41.6919 127 41.7044 127C41.7169 127 41.7293 127 41.7418 127C41.7542 127 41.7666 127 41.7789 127C41.7913 127 41.8036 127 41.816 127C41.8283 127 41.8406 127 41.8528 127C41.8651 127 41.8773 127 41.8895 127C41.9017 127 41.9139 127 41.926 127C41.9382 127 41.9503 127 41.9624 127C41.9745 127 41.9865 127 41.9986 127C42.0106 127 42.0226 127 42.0346 127C42.0466 127 42.0585 127 42.0704 127C42.0823 127 42.0942 127 42.1061 127C42.118 127 42.1298 127 42.1416 127C42.1534 127 42.1652 127 42.177 127C42.1887 127 42.2004 127 42.2121 127C42.2238 127 42.2355 127 42.2471 127C42.2587 127 42.2704 127 42.2819 127C42.2935 127 42.3051 127 42.3166 127C42.3281 127 42.3396 127 42.3511 127C42.3625 127 42.374 127 42.3854 127C42.3968 127 42.4081 127 42.4195 127C42.4308 127 42.4422 127 42.4534 127C42.4647 127 42.476 127 42.4872 127C42.4985 127 42.5097 127 42.5208 127C42.532 127 42.5431 127 42.5543 127C42.5654 127 42.5765 127 42.5875 127C42.5986 127 42.6096 127 42.6206 127C42.6316 127 42.6425 127 42.6535 127C42.6644 127 42.6753 127 42.6862 127C42.6971 127 42.7079 127 42.7187 127C42.7295 127 42.7403 127 42.7511 127C42.7618 127 42.7726 127 42.7833 127C42.7939 127 42.8046 127 42.8152 127C42.8259 127 42.8365 127 42.8471 127C42.8576 127 42.8682 127 42.8787 127C42.8892 127 42.8997 127 42.9101 127C42.9206 127 42.931 127 42.9414 127C42.9518 127 42.9622 127 42.9725 127C42.9828 127 42.9931 127 43.0034 127C43.0137 127 43.0239 127 43.0341 127C43.0443 127 43.0545 127 43.0646 127C43.0748 127 43.0849 127 43.095 127C43.1051 127 43.1151 127 43.1251 127C43.1352 127 43.1451 127 43.1551 127C43.1651 127 43.175 127 43.1849 127C43.1948 127 43.2047 127 43.2145 127C43.2243 127 43.2341 127 43.2439 127C43.2537 127 43.2634 127 43.2731 127C43.2828 127 43.2925 127 43.3021 127C43.3118 127 43.3214 127 43.331 127C43.3406 127 43.3501 127 43.3596 127C43.3691 127 43.3786 127 43.3881 127C43.3975 127 43.407 127 43.4164 127C43.4257 127 43.4351 127 43.4444 127C43.4538 127 43.463 127 43.4723 127C43.4816 127 43.4908 127 43.5 127V123ZM11 118H15V68H11H7V118H11ZM16 63V67H59.5V63V59H16V63ZM64.5 58H68.5V17H64.5H60.5V58H64.5ZM69.5 12V16H127V12V8H69.5V12ZM132 17H128V58H132H136V17H132ZM137 63V67H176.5V63V59H137V63ZM181.5 68H177.5V118H181.5H185.5V68H181.5ZM176.5 123V119H137V123V127H176.5V123ZM132 128H128V169.5H132H136V128H132ZM127 174.5V170.5H75.5V174.5V178.5H127V174.5ZM132 169.5H128C128 170.052 127.552 170.5 127 170.5V174.5V178.5C131.971 178.5 136 174.471 136 169.5H132ZM137 123V119C132.029 119 128 123.029 128 128H132H136C136 127.448 136.448 127 137 127V123ZM181.5 118H177.5C177.5 118.552 177.052 119 176.5 119V123V127C181.471 127 185.5 122.971 185.5 118H181.5ZM176.5 63V67C177.052 67 177.5 67.4477 177.5 68H181.5H185.5C185.5 63.0294 181.471 59 176.5 59V63ZM132 58H128C128 62.9706 132.029 67 137 67V63V59C136.448 59 136 58.5523 136 58H132ZM127 12V16C127.552 16 128 16.4477 128 17H132H136C136 12.0294 131.971 8 127 8V12ZM64.5 17H68.5C68.5 16.4477 68.9477 16 69.5 16V12V8C64.5294 8 60.5 12.0294 60.5 17H64.5ZM59.5 63V67C64.4706 67 68.5 62.9706 68.5 58H64.5H60.5C60.5 58.5523 60.0523 59 59.5 59V63ZM11 68H15C15 67.4477 15.4477 67 16 67V63V59C11.0294 59 7 63.0294 7 68H11ZM15.9988 123V119C15.4478 119 15 118.554 15 118H11H7C7 122.969 11.027 127 15.9988 127V123Z" fill="#5CD0F3"/>
</g>
<g filter="url(#filter4_d_530_92)">
<path d="M55.6764 126C55.6764 127.2 55.6764 144 55.6764 148.5C55.6764 153 56.6764 157.5 60.1764 160C63.6764 162.5 66.1764 163.417 69.1764 163.5C72.1764 163.583 75.1764 162.851 77.6764 161C80.1764 159.149 82.6764 153 82.6764 153" stroke="#0B5383" stroke-width="6"/>
<path d="M39.1764 78.5C39.1764 78.5 35.1764 78.0001 30.6764 81.5C26.1764 85 31.8511 104.577 34.6764 109.5C37.5017 114.423 40.3675 118.987 44.6764 122C48.9853 125.013 57.6764 124.5 57.6764 124.5" stroke="#0B5383" stroke-width="6"/>
<path d="M46.1764 78C46.1764 81.3137 44.1617 84 41.6764 84C39.1911 84 37.1764 84 37.1764 78C37.1764 72 39.1911 72 41.6764 72C44.1617 72 46.1764 74.6863 46.1764 78Z" fill="#0B5383"/>
<path d="M73.6764 78.5C73.6764 78.5 78.1764 77.5 82.1764 81.5C86.1764 85.5001 81.0017 104.577 78.1764 109.5C75.3511 114.423 72.4853 118.987 68.1764 122C63.8675 125.013 55.1764 124.5 55.1764 124.5" stroke="#0B5383" stroke-width="6"/>
<path d="M66.6764 78C66.6764 81.3137 68.6911 84 71.1764 84C73.6617 84 75.6764 84 75.6764 78C75.6764 72 73.6617 72 71.1764 72C68.6911 72 66.6764 74.6863 66.6764 78Z" fill="#0B5383"/>
<circle cx="82.6764" cy="144.5" r="7.5" stroke="#0B5383" stroke-width="6"/>
</g>
</g>
<defs>
<filter id="filter0_d_530_92" x="0" y="0" width="574.58" height="190.5" filterUnits="userSpaceOnUse" color-interpolation-filters="sRGB">
<feFlood flood-opacity="0" result="BackgroundImageFix"/>
<feColorMatrix in="SourceAlpha" type="matrix" values="0 0 0 0 0 0 0 0 0 0 0 0 0 0 0 0 0 0 127 0" result="hardAlpha"/>
<feOffset dx="3" dy="2"/>
<feGaussianBlur stdDeviation="5"/>
<feComposite in2="hardAlpha" operator="out"/>
<feColorMatrix type="matrix" values="0 0 0 0 0.523077 0 0 0 0 0.523077 0 0 0 0 0.523077 0 0 0 0.05 0"/>
<feBlend mode="normal" in2="BackgroundImageFix" result="effect1_dropShadow_530_92"/>
<feBlend mode="normal" in="SourceGraphic" in2="effect1_dropShadow_530_92" result="shape"/>
</filter>
<filter id="filter1_d_530_92" x="249.022" y="43.16" width="318.558" height="112.48" filterUnits="userSpaceOnUse" color-interpolation-filters="sRGB">
<feFlood flood-opacity="0" result="BackgroundImageFix"/>
<feColorMatrix in="SourceAlpha" type="matrix" values="0 0 0 0 0 0 0 0 0 0 0 0 0 0 0 0 0 0 127 0" result="hardAlpha"/>
<feOffset dx="2" dy="4"/>
<feGaussianBlur stdDeviation="2"/>
<feComposite in2="hardAlpha" operator="out"/>
<feColorMatrix type="matrix" values="0 0 0 0 0 0 0 0 0 0 0 0 0 0 0 0 0 0 0.25 0"/>
<feBlend mode="normal" in2="BackgroundImageFix" result="effect1_dropShadow_530_92"/>
<feBlend mode="normal" in="SourceGraphic" in2="effect1_dropShadow_530_92" result="shape"/>
</filter>
<filter id="filter2_d_530_92" x="91" y="49" width="86" height="130" filterUnits="userSpaceOnUse" color-interpolation-filters="sRGB">
<feFlood flood-opacity="0" result="BackgroundImageFix"/>
<feColorMatrix in="SourceAlpha" type="matrix" values="0 0 0 0 0 0 0 0 0 0 0 0 0 0 0 0 0 0 127 0" result="hardAlpha"/>
<feOffset dy="4"/>
<feGaussianBlur stdDeviation="2"/>
<feComposite in2="hardAlpha" operator="out"/>
<feColorMatrix type="matrix" values="0 0 0 0 0 0 0 0 0 0 0 0 0 0 0 0 0 0 0.25 0"/>
<feBlend mode="normal" in2="BackgroundImageFix" result="effect1_dropShadow_530_92"/>
<feBlend mode="normal" in="SourceGraphic" in2="effect1_dropShadow_530_92" result="shape"/>
</filter>
<filter id="filter3_d_530_92" x="3" y="8" width="186.5" height="178.5" filterUnits="userSpaceOnUse" color-interpolation-filters="sRGB">
<feFlood flood-opacity="0" result="BackgroundImageFix"/>
<feColorMatrix in="SourceAlpha" type="matrix" values="0 0 0 0 0 0 0 0 0 0 0 0 0 0 0 0 0 0 127 0" result="hardAlpha"/>
<feOffset dy="4"/>
<feGaussianBlur stdDeviation="2"/>
<feComposite in2="hardAlpha" operator="out"/>
<feColorMatrix type="matrix" values="0 0 0 0 0 0 0 0 0 0 0 0 0 0 0 0 0 0 0.25 0"/>
<feBlend mode="normal" in2="BackgroundImageFix" result="effect1_dropShadow_530_92"/>
<feBlend mode="normal" in="SourceGraphic" in2="effect1_dropShadow_530_92" result="shape"/>
</filter>
<filter id="filter4_d_530_92" x="22" y="72" width="75.1764" height="102.506" filterUnits="userSpaceOnUse" color-interpolation-filters="sRGB">
<feFlood flood-opacity="0" result="BackgroundImageFix"/>
<feColorMatrix in="SourceAlpha" type="matrix" values="0 0 0 0 0 0 0 0 0 0 0 0 0 0 0 0 0 0 127 0" result="hardAlpha"/>
<feOffset dy="4"/>
<feGaussianBlur stdDeviation="2"/>
<feComposite in2="hardAlpha" operator="out"/>
<feColorMatrix type="matrix" values="0 0 0 0 0 0 0 0 0 0 0 0 0 0 0 0 0 0 0.25 0"/>
<feBlend mode="normal" in2="BackgroundImageFix" result="effect1_dropShadow_530_92"/>
<feBlend mode="normal" in="SourceGraphic" in2="effect1_dropShadow_530_92" result="shape"/>
</filter>
</defs>
</svg>
