<svg width="1412" height="130" viewBox="0 0 1412 130" fill="none" xmlns="http://www.w3.org/2000/svg">
<path d="M3.5 72.6616H799.035C799.907 72.6616 800.679 72.0965 800.942 71.2651L821.49 6.34955C822.089 4.45851 824.778 4.49839 825.321 6.40635L858.614 123.551C859.153 125.447 861.82 125.502 862.437 123.63L886.55 50.4194C887.159 48.5721 889.779 48.5922 890.359 50.4485L904.39 95.3495C904.944 97.1206 907.402 97.2486 908.136 95.5446L917.479 73.8699C917.795 73.1366 918.517 72.6616 919.316 72.6616H1225.06H1405.46" stroke="#D81827" stroke-width="7" stroke-linecap="round"/>
<path d="M1411.18 72.6609C1411.18 82.237 1403.42 90 1393.84 90C1384.26 90 1376.5 82.237 1376.5 72.6609C1376.5 63.0847 1384.26 55.3217 1393.84 55.3217C1403.42 55.3217 1411.18 63.0847 1411.18 72.6609Z" fill="#D81827"/>
</svg>
