<svg width="32" height="32" viewBox="0 0 32 32" fill="none" xmlns="http://www.w3.org/2000/svg">
<path d="M2.39793 9.25737C3.72235 5.92088 7.50081 4.28947 10.8374 5.61378C11.4629 5.86205 12.0286 6.19647 12.526 6.59815L12.5267 6.59633C12.5267 6.59633 24.7649 14.5312 25.6807 15.4705C26.5947 16.4086 27.5159 17.0618 27.9158 17.9714C28.3155 18.8811 28.4762 19.27 28.1074 20.1992C27.7385 21.1287 27.4397 21.1683 26.4401 21.6893C25.4405 22.2103 24.4077 21.9408 23.0983 21.9767C21.7882 22.0124 7.94373 18.1429 7.94373 18.1429L7.94554 18.1384C7.30803 18.0896 6.66705 17.9451 6.04152 17.6968C2.70488 16.3725 1.07359 12.594 2.39793 9.25737Z" fill="#9EC8B9"/>
<path d="M21.0849 4.14402C21.0597 1.92031 22.8615 0.0974136 25.1093 0.0717193C26.9372 0.0509719 28.4971 1.22511 29.0299 2.86041L29.0833 2.83441C29.0935 2.86786 31.4307 10.5048 31.471 11.1721C31.5103 11.8377 31.6582 12.3803 31.4905 12.8907C31.3228 13.4013 31.2467 13.6167 30.7463 13.9227C30.2463 14.2284 30.1052 14.1631 29.4896 14.1147C28.8737 14.0663 28.536 13.6619 27.9687 13.3145C27.4021 12.9676 21.7719 6.40017 21.7569 6.38263L21.7909 6.36662C21.3535 5.73305 21.0943 4.96882 21.0849 4.14402Z" fill="#9EC8B9"/>
<path d="M16.8979 29.0016C15.6235 28.3949 15.0873 26.8586 15.7004 25.5702C16.199 24.5225 17.3041 23.9617 18.385 24.1147L18.3847 24.0767C18.3847 24.0767 23.413 24.8795 23.8048 25.0431C24.1951 25.2065 24.5456 25.2738 24.7898 25.5118C25.034 25.75 25.1351 25.854 25.1698 26.2247C25.2044 26.5951 25.1283 26.6573 24.9289 26.9947C24.7293 27.3323 24.4037 27.4118 24.0473 27.6383C23.6878 27.8655 18.3616 29.2438 18.3616 29.2438L18.362 29.2202C17.8788 29.2925 17.3706 29.2265 16.8979 29.0016Z" fill="#9EC8B9"/>
</svg>
