<svg width="31" height="35" viewBox="0 0 31 35" fill="none" xmlns="http://www.w3.org/2000/svg">
<path d="M26.6293 29.3239C28.6827 26.3794 27.9605 22.3276 25.0161 20.2741C24.4641 19.8892 23.8732 19.6016 23.2639 19.4081L23.265 19.4065C23.265 19.4065 9.89771 13.5711 8.60915 13.3249C7.32262 13.0797 6.26977 12.6713 5.29041 12.8391C4.31105 13.0072 3.89806 13.0876 3.3261 13.9076C2.75407 14.7278 2.88577 14.9989 3.00224 16.12C3.11872 17.2413 3.91296 17.9543 4.60486 19.0665C5.29736 20.1792 16.1586 29.596 16.1586 29.596L16.1614 29.592C16.5536 30.097 17.0275 30.5521 17.5796 30.9371C20.524 32.9906 24.5757 32.2684 26.6293 29.3239Z" fill="#9EC8B9"/>
<path d="M20.5925 10.9145C22.4616 9.70957 22.989 7.20132 21.7712 5.31187C20.7807 3.77542 18.9411 3.12135 17.2831 3.57851L17.2753 3.5196C17.2417 3.5295 9.58174 5.79013 9.00284 6.12442C8.4259 6.45858 7.89169 6.63434 7.55826 7.05569C7.22484 7.47714 7.08699 7.65936 7.10762 8.24551C7.12828 8.83127 7.26051 8.91291 7.64029 9.39981C8.02025 9.88698 8.54385 9.94573 9.14639 10.2275C9.74824 10.509 18.3315 11.5853 18.3544 11.5882L18.349 11.551C19.1187 11.5665 19.8992 11.3615 20.5925 10.9145Z" fill="#9EC8B9"/>
</svg>
