<svg width="39" height="45" viewBox="0 0 39 45" fill="none" xmlns="http://www.w3.org/2000/svg">
<path d="M37.1688 40.6331C40.3853 36.0116 39.2541 29.6522 34.6419 26.4291C33.7773 25.8249 32.8517 25.3736 31.8972 25.0698L31.899 25.0673C31.899 25.0673 10.9603 15.9085 8.94183 15.5221C6.92659 15.1371 5.2774 14.4961 3.74331 14.7596C2.20922 15.0233 1.56231 15.1495 0.666392 16.4365C-0.22965 17.7239 -0.0233583 18.1493 0.159094 19.9091C0.341548 21.6689 1.58565 22.788 2.66945 24.5337C3.7542 26.2801 20.7674 41.0602 20.7674 41.0602L20.7718 41.0539C21.3861 41.8465 22.1285 42.5608 22.9932 43.165C27.6055 46.3882 33.9521 45.2546 37.1688 40.6331Z" fill="#A481F5"/>
<path d="M27.7127 11.7388C30.6405 9.84758 31.4667 5.91078 29.559 2.94521C28.0075 0.533695 25.1259 -0.492907 22.5288 0.224621L22.5166 0.132174C22.4641 0.147709 10.4653 3.69586 9.55852 4.22054C8.65479 4.74502 7.81799 5.02088 7.2957 5.68221C6.77342 6.34369 6.55749 6.62969 6.58981 7.54968C6.62218 8.46907 6.82931 8.5972 7.42419 9.3614C8.01937 10.126 8.83955 10.2183 9.78337 10.6605C10.7261 11.1024 24.171 12.7916 24.2069 12.7961L24.1985 12.7378C25.4042 12.7622 26.6268 12.4403 27.7127 11.7388Z" fill="#A481F5"/>
</svg>
